<?xml version="1.0" encoding="utf-8"?>
<!-- Generator: Adobe Illustrator 24.0.0, SVG Export Plug-In . SVG Version: 6.00 Build 0)  -->
<svg version="1.1" id="Layer_1" xmlns="http://www.w3.org/2000/svg" xmlns:xlink="http://www.w3.org/1999/xlink" x="0px" y="0px"
	 viewBox="0 0 69 35.8" style="enable-background:new 0 0 69 35.8;" xml:space="preserve">
<style type="text/css">
	.st0{fill:#333B41;stroke:#333B41;stroke-width:0.5;}
</style>
<path class="st0" d="M53.4,27.88L53.4,27.88L53.4,27.88c-3,1.94-5.77,3.58-8.24,4.87c-1.38,0.72-2.91,1.46-4.33,2.01
	c-1.41,0.55-2.76,0.93-3.78,0.93c-0.66,0-1.25-0.16-1.6-0.63l0,0c-0.35-0.47-0.34-1.09-0.15-1.74c0.19-0.65,0.59-1.4,1.1-2.17
	c1.02-1.55,2.54-3.28,3.97-4.78c1.07-1.12,2.29-2.32,3.65-3.58c-4.34,0.38-9.2,0.59-14.15,0.59c-7.29,0-14.82-0.45-20.53-1.33
	c-2.85-0.44-5.26-0.98-6.97-1.64c-0.85-0.33-1.54-0.68-2.02-1.08c-0.48-0.4-0.79-0.86-0.79-1.38c0-0.53,0.3-0.99,0.79-1.38
	c0.48-0.4,1.17-0.75,2.02-1.08c1.7-0.65,4.12-1.2,6.97-1.64c5.71-0.88,13.24-1.33,20.53-1.33c5.22,0,10.28,0.22,14.77,0.64
	c-1.9-1.44-3.59-2.8-5.03-4.07l0,0c-1.56-1.36-3.22-2.95-4.38-4.4c-0.58-0.72-1.04-1.43-1.29-2.06c-0.25-0.63-0.31-1.25-0.01-1.74v0
	c0.31-0.5,0.89-0.71,1.57-0.77c0.68-0.06,1.52,0.04,2.42,0.24c1.81,0.39,3.98,1.18,5.89,1.97c2.57,1.06,5.47,2.45,8.64,4.12l0,0
	l2.41,1.3v0l0.01,0l3.47,2.01l0,0l0,0c3.36,2.01,6.81,4.11,10.27,6.26v0l0.33,0.21l0.31,0.19l-0.29,0.22l-0.31,0.24c0,0,0,0,0,0
	c-3.01,2.27-6.26,4.67-9.67,7.15l0,0l-1.45,1.04l0,0l-0.01,0L53.4,27.88z M44.68,31.83L44.68,31.83c2.44-1.27,5.18-2.89,8.15-4.82
	c0,0,0,0,0,0l2.28-1.5l3.26-2.3c0,0,0,0,0,0c3.18-2.31,6.22-4.55,9.05-6.68c-3.24-2.01-6.47-3.97-9.61-5.85c0,0,0,0,0,0l-2.22-1.31
	l-3.63-1.98c0,0,0,0,0,0c-3.14-1.66-6.01-3.03-8.55-4.07l0,0c-3.68-1.53-5.82-2.04-7.06-2.14c-1.24-0.1-1.5,0.22-1.54,0.29
	c-0.04,0.06-0.21,0.44,0.43,1.5c0.64,1.06,2.05,2.75,5.05,5.38l0,0c1.79,1.57,3.97,3.29,6.47,5.14l0.81,0.59l0.75,0.55l-0.93-0.1
	l-1-0.11c-4.89-0.54-10.61-0.83-16.53-0.83c-8.82,0-16.18,0.6-21.34,1.48c-2.58,0.44-4.59,0.95-5.96,1.48
	c-0.68,0.27-1.19,0.53-1.52,0.79C0.71,17.58,0.6,17.8,0.6,17.96c0,0.16,0.11,0.38,0.45,0.65c0.33,0.26,0.84,0.53,1.52,0.79
	c1.37,0.53,3.38,1.04,5.96,1.48c5.15,0.88,12.52,1.48,21.34,1.48c5.52,0,10.92-0.25,15.59-0.73l0.81-0.08l0.76-0.08l-0.56,0.51
	l-0.61,0.55l0,0c-1.8,1.63-3.4,3.17-4.74,4.58c-2.75,2.88-4.01,4.69-4.55,5.81c-0.54,1.12-0.33,1.48-0.29,1.54l0,0
	c0.04,0.05,0.32,0.36,1.55,0.15C39.06,34.38,41.14,33.67,44.68,31.83z"/>
</svg>
