<?xml version="1.0" encoding="utf-8"?>
<!-- Generator: Adobe Illustrator 24.0.0, SVG Export Plug-In . SVG Version: 6.00 Build 0)  -->
<svg version="1.1" id="Layer_1" xmlns="http://www.w3.org/2000/svg" xmlns:xlink="http://www.w3.org/1999/xlink" x="0px" y="0px"
	 viewBox="0 0 4.79 7.13" style="enable-background:new 0 0 4.79 7.13;" xml:space="preserve">
<style type="text/css">
	.st0{fill-rule:evenodd;clip-rule:evenodd;fill:#FFFFFF;}
</style>
<path class="st0" d="M3.97,6.93C3.88,6.56,3.61,6.14,3.4,5.67C3.58,6.07,3.76,6.47,3.97,6.93z M4.48,6.89
	C4.18,6.39,4,5.83,3.82,5.27C3.67,5.1,3.55,5.17,3.43,5.24c-0.21,0.2-0.42,0.24-0.18,0.44c0.3,0.49,0.51,0.96,0.66,1.45
	c0.06-0.03,0.18-0.1,0.24-0.14C4.27,6.92,4.3,6.82,4.48,6.89z M3.19,5.21C3.1,4.85,2.83,4.42,2.62,3.96
	C2.8,4.35,2.98,4.75,3.19,5.21z M2.38,3.43c-0.06-0.3-0.36-0.79-0.54-1.19c0.18,0.4,0.33,0.73,0.57,1.26
	C2.41,3.49,2.41,3.49,2.38,3.43z M2.89,3.39C2.61,2.96,2.43,2.4,2.22,1.77C2.1,1.67,1.98,1.74,1.86,1.81
	c-0.21,0.2-0.42,0.24-0.18,0.44C1.95,2.67,2.19,3.2,2.35,3.69c0.06-0.03,0.18-0.1,0.24-0.14C2.68,3.42,2.74,3.39,2.89,3.39z
	 M1.59,1.71c-0.06-0.3-0.36-0.79-0.54-1.19c0.18,0.4,0.33,0.73,0.57,1.26L1.59,1.71z M2.1,1.67C1.83,1.24,1.65,0.68,1.44,0.05
	C1.32-0.05,1.2,0.02,1.08,0.09C0.87,0.29,0.63,0.26,0.9,0.52c0.27,0.43,0.51,0.96,0.66,1.45c0.06-0.03,0.18-0.1,0.21-0.2
	C1.89,1.71,1.95,1.67,2.1,1.67z M1.99,3.57C1.75,3.54,1.57,3.47,1.33,3.45C1.57,3.47,1.72,3.47,1.99,3.57
	C1.63,3.44,1.35,3.34,1.02,3.28C1.3,3.38,1.54,3.41,1.9,3.54C1.5,3.34,1.17,3.28,0.87,3.12c0.27,0.1,0.54,0.19,0.93,0.38
	C1.47,3.28,1.11,3.15,0.75,3.02C1.11,3.15,1.5,3.34,1.99,3.57C2.08,3.6,2.08,3.6,1.99,3.57z M1.87,3.64c0,0-0.06,0.03-0.09-0.03
	c-0.45,0.01-0.84-0.02-1.2,0.02c0.33,0.06,0.69,0.02,1.05-0.02C1.27,3.65,0.97,3.65,0.7,3.72c0.3,0,0.66-0.04,1.02-0.08
	c-0.3,0-0.57,0.08-0.84,0.15c0.36-0.04,0.63-0.11,0.93-0.12C1.6,3.71,1.39,3.74,1.18,3.78C1.39,3.74,1.6,3.71,1.81,3.67
	C1.87,3.64,1.87,3.64,1.87,3.64z M2.05,4.03C1.93,4.1,1.84,4.24,1.66,4.34C1.78,4.27,1.87,4.14,2.05,4.03
	c-0.18,0.1-0.39,0.31-0.57,0.41c0.18-0.1,0.33-0.27,0.51-0.37C1.75,4.2,1.51,4.34,1.3,4.54C1.45,4.38,1.69,4.24,1.93,4.1
	C1.69,4.24,1.45,4.38,1.21,4.51c0.24-0.14,0.51-0.37,0.81-0.55C2.08,3.93,2.11,4,2.05,4.03z M2.08,4.1
	C2.02,4.13,2.02,4.13,2.02,4.13C1.78,4.44,1.6,4.71,1.48,4.94c0.12-0.23,0.3-0.5,0.45-0.67C1.81,4.5,1.66,4.67,1.54,4.91
	c0.12-0.23,0.3-0.5,0.42-0.74C1.84,4.4,1.78,4.6,1.69,4.74C1.78,4.6,1.9,4.37,2.02,4.13c-0.06,0.2-0.15,0.34-0.18,0.44
	c0.09-0.13,0.09-0.3,0.18-0.44L2.08,4.1z M2.23,3.93C2.29,3.9,2.29,3.9,2.35,3.86c0.03,0.07,0.03,0.07,0.12,0.1
	c0.3,0.49,0.51,0.96,0.66,1.45c0.06-0.03,0.18-0.1,0.24-0.14c0.09-0.13,0.15-0.17,0.3-0.17C3.4,4.68,3.22,4.11,3.01,3.48
	c-0.12-0.1-0.24-0.03-0.36,0.04C2.5,3.69,2.35,3.69,2.32,3.79C2.29,3.73,2.2,3.7,2.17,3.63C2.14,3.56,2.05,3.53,1.9,3.37
	C1.5,3.18,0.87,2.95,0.54,2.89c0.09,0.2,0.57,0.42,0.96,0.62c-0.39-0.03-0.9,0.01-1.2,0.19c0.3,0.16,1.41,0.11,1.74,0
	c0,0,0.06-0.03,0.09,0.03c0.09,0.03,0.18,0.06,0.21,0.13C2.29,3.9,2.23,3.93,2.14,3.9c0,0-0.06,0.03-0.18,0.1
	C1.63,4.11,1.24,4.41,1.03,4.61c0.18,0.06,0.54-0.14,0.81-0.38C1.66,4.5,1.45,4.87,1.33,5.11C1.6,5.04,2.08,4.26,2.11,4
	C2.17,3.96,2.17,3.96,2.23,3.93z"/>
</svg>
