<?xml version="1.0" encoding="utf-8"?>
<!-- Generator: Adobe Illustrator 24.0.0, SVG Export Plug-In . SVG Version: 6.00 Build 0)  -->
<svg version="1.1" id="Layer_1" xmlns="http://www.w3.org/2000/svg" xmlns:xlink="http://www.w3.org/1999/xlink" x="0px" y="0px"
	 viewBox="0 0 33 37" style="enable-background:new 0 0 33 37;" xml:space="preserve">
<style type="text/css">
	.st0{fill-rule:evenodd;clip-rule:evenodd;fill:#55B807;}
	.st1{fill:#FFEB00;stroke:#55B807;stroke-width:0.2;}
</style>
<path class="st0" d="M24.52,34.01c-0.46-1.64-1.83-3.58-2.9-5.66C22.54,30.14,23.45,31.93,24.52,34.01z M27.11,33.83
	c-1.53-2.23-2.45-4.77-3.36-7.3c-0.76-0.74-1.37-0.43-1.98-0.12c-1.06,0.92-2.13,1.08-0.91,1.96c1.53,2.23,2.6,4.31,3.36,6.55
	c0.3-0.15,0.91-0.46,1.21-0.62C26.04,33.99,26.2,33.54,27.11,33.83z M20.55,26.27c-0.46-1.64-1.83-3.58-2.9-5.66
	C18.56,22.39,19.48,24.18,20.55,26.27z M16.42,18.22c-0.31-1.35-1.83-3.58-2.75-5.36c0.92,1.79,1.68,3.28,2.9,5.66
	C16.58,18.52,16.58,18.52,16.42,18.22z M19.01,18.04c-1.37-1.93-2.29-4.47-3.36-7.3c-0.61-0.44-1.22-0.13-1.82,0.18
	c-1.06,0.92-2.13,1.08-0.91,1.96c1.37,1.93,2.6,4.31,3.36,6.55c0.3-0.15,0.91-0.46,1.21-0.62C17.94,18.2,18.25,18.05,19.01,18.04z
	 M12.45,10.48C12.14,9.13,10.61,6.9,9.7,5.12c0.92,1.79,1.68,3.28,2.9,5.66L12.45,10.48z M15.03,10.29
	c-1.37-1.93-2.29-4.47-3.37-7.3c-0.61-0.44-1.22-0.13-1.82,0.18C8.78,4.08,7.57,3.95,8.94,5.13c1.37,1.93,2.6,4.31,3.36,6.55
	c0.3-0.15,0.91-0.46,1.06-0.92C13.97,10.46,14.27,10.3,15.03,10.29z M14.45,18.85c-1.22-0.13-2.13-0.42-3.35-0.55
	C12.32,18.43,13.08,18.42,14.45,18.85c-1.83-0.57-3.2-1-4.87-1.28c1.37,0.43,2.59,0.56,4.41,1.14c-1.98-0.87-3.65-1.15-5.17-1.88
	c1.37,0.43,2.74,0.86,4.72,1.73c-1.68-1.03-3.5-1.6-5.33-2.17C10.03,16.97,12.01,17.84,14.45,18.85C14.9,19,14.9,19,14.45,18.85z
	 M13.84,19.16c0,0-0.3,0.15-0.46-0.14c-2.28,0.03-4.26-0.09-6.08,0.09c1.67,0.28,3.5,0.1,5.32-0.08c-1.82,0.18-3.34,0.2-4.71,0.52
	c1.52-0.02,3.34-0.2,5.17-0.38c-1.52,0.02-2.89,0.34-4.26,0.66c1.82-0.18,3.19-0.5,4.71-0.52c-1.06,0.17-2.13,0.33-3.19,0.5
	c1.06-0.17,2.13-0.33,3.19-0.5C13.84,19.16,13.84,19.16,13.84,19.16z M14.76,20.95c-0.61,0.31-1.06,0.92-1.97,1.38
	C13.39,22.02,13.85,21.41,14.76,20.95c-0.91,0.46-1.97,1.38-2.88,1.84c0.91-0.46,1.67-1.23,2.58-1.69
	c-1.21,0.62-2.43,1.24-3.49,2.15c0.76-0.76,1.97-1.38,3.19-2c-1.21,0.62-2.43,1.24-3.64,1.85c1.21-0.62,2.58-1.69,4.1-2.46
	C14.91,20.5,15.06,20.8,14.76,20.95z M14.91,21.25c-0.3,0.15-0.3,0.15-0.3,0.15c-1.21,1.37-2.12,2.58-2.73,3.64
	c0.61-1.06,1.51-2.27,2.27-3.03c-0.61,1.06-1.36,1.82-1.97,2.88c0.61-1.06,1.51-2.27,2.12-3.33c-0.61,1.06-0.91,1.96-1.36,2.57
	c0.45-0.61,1.06-1.67,1.66-2.73c-0.3,0.9-0.76,1.51-0.91,1.96c0.45-0.61,0.45-1.36,0.91-1.96L14.91,21.25z M15.67,20.49
	c0.3-0.15,0.3-0.15,0.61-0.31c0.15,0.3,0.15,0.3,0.61,0.44c1.53,2.23,2.6,4.31,3.36,6.55c0.3-0.15,0.91-0.46,1.21-0.62
	c0.45-0.61,0.76-0.76,1.52-0.77c-1.37-1.93-2.29-4.47-3.36-7.3c-0.61-0.44-1.22-0.13-1.82,0.18c-0.76,0.76-1.52,0.77-1.67,1.23
	c-0.15-0.3-0.61-0.44-0.76-0.74c-0.15-0.3-0.61-0.44-1.37-1.18c-1.98-0.87-5.17-1.88-6.85-2.15c0.46,0.89,2.89,1.91,4.87,2.78
	c-1.98-0.12-4.56,0.07-6.08,0.84c1.52,0.73,7.15,0.5,8.82,0.02c0,0,0.3-0.15,0.46,0.14c0.46,0.14,0.91,0.29,1.07,0.58
	c-0.3,0.15-0.61,0.31-1.06,0.17c0,0-0.3,0.15-0.91,0.46c-1.67,0.47-3.64,1.85-4.71,2.77c0.91,0.29,2.73-0.64,4.1-1.71
	c-0.91,1.21-1.97,2.88-2.57,3.94c1.37-0.32,3.79-3.81,3.94-5.01C15.37,20.64,15.37,20.64,15.67,20.49z"/>
<path class="st1" d="M28.3,12.63l0-0.01l0-0.01l-0.1-6.06l0-0.01l0-0.01c-0.05-0.22,0.06-0.44,0.29-0.61
	c0.24-0.17,0.59-0.29,0.98-0.32c0.77-0.05,1.68,0.29,2.12,1.29c-0.19,0.88-0.3,1.74-0.4,2.6l0,0c-0.11,0.87-0.22,1.74-0.41,2.61
	l-0.01,0.04l0.02,0.04c2.46,3.59,2.73,7.49,1.52,11.03c-1.21,3.54-3.91,6.7-7.4,8.78c-3.48,2.08-7.74,3.07-12.06,2.28
	c-4.32-0.79-8.71-3.37-12.47-8.44c-0.14-0.58-0.2-1.07-0.17-1.46c0.03-0.39,0.15-0.67,0.34-0.85c0.2-0.18,0.49-0.28,0.9-0.28
	c0.41,0,0.93,0.11,1.57,0.34C13.54,27.93,25.17,23.86,28.3,12.63z"/>
</svg>
