<?xml version="1.0" encoding="utf-8"?>
<!-- Generator: Adobe Illustrator 24.0.0, SVG Export Plug-In . SVG Version: 6.00 Build 0)  -->
<svg version="1.1" id="Layer_1" xmlns="http://www.w3.org/2000/svg" xmlns:xlink="http://www.w3.org/1999/xlink" x="0px" y="0px"
	 viewBox="0 0 10 20" style="enable-background:new 0 0 10 20;" xml:space="preserve">
<style type="text/css">
	.st0{fill:#333B41;}
</style>
<path class="st0" d="M8.08,6.26C7.66,5.87,7.25,5.58,6.86,5.38C6.47,5.19,6.03,5.09,5.53,5.09c-0.57,0-0.99,0.13-1.27,0.36
	C3.97,5.69,3.82,6.08,3.82,6.6c0,0.36,0.16,0.7,0.47,0.94C4.6,7.79,4.96,8.03,5.43,8.26C5.9,8.49,6.39,8.73,6.91,8.99
	S7.92,9.53,8.39,9.9c0.47,0.36,0.83,0.78,1.14,1.3C9.84,11.71,10,12.34,10,13.06c0,1.12-0.31,2.08-0.91,2.88
	c-0.6,0.81-1.53,1.32-2.73,1.61V20H4.1v-2.34c-0.68-0.08-1.4-0.26-2.16-0.57c-0.75-0.31-1.4-0.7-1.95-1.19l1.51-2.31
	c0.6,0.44,1.17,0.78,1.69,1.01c0.55,0.23,1.09,0.34,1.64,0.34c0.65,0,1.14-0.13,1.43-0.39c0.31-0.26,0.47-0.68,0.47-1.22
	c0-0.42-0.16-0.75-0.47-1.04C5.95,12,5.58,11.74,5.12,11.48c-0.47-0.26-0.96-0.52-1.48-0.78c-0.52-0.26-1.01-0.57-1.48-0.94
	C1.69,9.4,1.32,8.99,1.01,8.49C0.7,8,0.55,7.43,0.55,6.73c0-1.14,0.31-2.1,0.94-2.86c0.62-0.75,1.51-1.25,2.6-1.45V0h2.26v2.36
	c0.75,0.1,1.4,0.34,1.97,0.68c0.57,0.34,1.06,0.75,1.53,1.25L8.08,6.26z"/>
</svg>
