<?xml version="1.0" encoding="utf-8"?>
<!-- Generator: Adobe Illustrator 24.0.0, SVG Export Plug-In . SVG Version: 6.00 Build 0)  -->
<svg version="1.1" id="Layer_1" xmlns="http://www.w3.org/2000/svg" xmlns:xlink="http://www.w3.org/1999/xlink" x="0px" y="0px"
	 viewBox="0 0 284 246" style="enable-background:new 0 0 284 246;" xml:space="preserve">
<style type="text/css">
	.st0{fill:none;}
</style>
<rect x="0.19" y="-0.09" class="st0" width="284" height="246"/>
<g>
	<path d="M249.01,195.93c10.85-20.98,19.67-46.71,19.67-74.13c0-13.77-4.3-29.43-11.51-41.88c-6.3-10.89-17.99-24.95-37.88-30.14
		c-25.18-6.56-50.69-0.44-71.19,4.48c-7.41,1.78-14.41,3.46-20.4,4.29c-13.44,1.86-27.64,1.59-39.85,1.12h-0.01
		c-1.91-0.07-3.78-0.15-5.58-0.23c-7.71-0.33-25.48-0.64-25.48-0.64c-0.97-4.12-3.18-7.5-5.94-9.06c-1.17-0.65-2.44-0.98-3.73-0.96
		c-1.29,0.02-2.56,0.37-3.72,1.05c-3.79,2.05-5.61,6.6-4.75,11.73c-6.08,3.12-12.02,9.33-15.62,14.22
		c-3.09,4.19-5.72,10.81-8.25,17.22c-2.58,6.52-5.25,13.26-7.93,15.99c-0.65,0.66-1.23,1.42-1.72,2.26c-0.01,0-0.02,0-0.03-0.01
		c-0.56-0.13-1.14-0.13-1.69,0.02c-0.56,0.15-1.08,0.43-1.54,0.83c-0.46,0.4-0.84,0.92-1.13,1.51c-0.28,0.59-0.46,1.24-0.52,1.92
		c-0.06,0.68,0,1.36,0.18,2.01c0.18,0.65,0.46,1.24,0.84,1.75c0.38,0.51,0.84,0.91,1.36,1.19c0.52,0.28,1.08,0.43,1.65,0.43
		c0.48,1.79,1.13,3.51,1.94,5.13c5.38,11.03,13.89,17.89,21.4,23.94c4.14,3.34,8.05,6.49,11.07,10.01c2.27,2.73,4.25,5.79,5.88,9.11
		c0.02,0.04,0.04,0.08,0.06,0.12c3.07,6.13,5.51,13.61,5.97,20.75c0.58,9.02,1.94,33.38,2.37,41.08c-1.48,0.56-2.87,1.42-4.1,2.54
		c-0.92,0.83-1.59,1.98-1.93,3.3c-0.33,1.32-0.3,2.72,0.08,4.02c0.36,1.32,1.07,2.47,2.02,3.28c0.95,0.81,2.09,1.24,3.26,1.23h25.14
		c0.81,0,1.61-0.21,2.34-0.62c0.73-0.41,1.38-1,1.91-1.74c5.56-7.88,19.43-28.18,28.21-46.61c33.98-0.04,57.19-1.51,70.72-4.49
		c2.02,15.19,4.68,32.5,5.65,38.74c-0.84,0.47-1.64,1.04-2.37,1.72c-1.01,0.92-1.74,2.2-2.11,3.65c-0.37,1.45-0.34,3,0.07,4.43
		c0.41,1.43,1.18,2.68,2.22,3.56c1.03,0.88,2.27,1.35,3.54,1.35h23.57c1.39,0,2.74-0.57,3.83-1.62c7.77-7.51,21.99-24.67,33.85-47.5
		C248.9,196.16,248.96,196.05,249.01,195.93z M82.93,123.73c-7.6,18.98-20.98,34.34-35.24,40.6c-1.64-3.05-3.55-5.88-5.69-8.44
		c-3.33-3.88-7.41-7.16-11.73-10.65c-7.43-5.99-15.11-12.18-19.94-22.09c-2.94-6.03-1.84-8.37-0.38-9.85
		c3.45-3.52,6.22-10.49,9.14-17.88c2.4-6.05,4.87-12.3,7.52-15.89c3.21-4.35,8.91-10.36,14.42-13c0.54-0.26,1.03-0.66,1.43-1.17
		c3.02,5.25,10.2,4.48,12-0.3c0.13-0.34,0.22-0.7,0.28-1.07c7.59,1.18,19.69,0.8,27.35,1.12c1.3,0.05,2.64,0.11,3.99,0.17
		C91.67,83.97,90.57,104.66,82.93,123.73z M229.45,175.85c-4.45-0.99-26.54-4.97-45.07,7.97c-0.88-7.14-1.48-13.07-1.48-15.97
		c0-0.75-0.25-1.48-0.7-2.01c-0.45-0.53-1.05-0.83-1.69-0.83c-0.63,0-1.24,0.3-1.69,0.83c-0.45,0.53-0.7,1.26-0.7,2.01
		c0,3.37,0.72,10.31,1.74,18.46c-11.56,2.57-30.63,4.01-57.95,4.35c5.44-3.94,9.78-9.59,12.95-16.93
		c4.41-10.23,6.36-23.55,5.64-38.54c-0.81-16.88-11.7-39.62-20.45-57.89c-2.03-4.23-3.97-8.28-5.58-11.87
		c4.6-0.22,9.23-0.61,13.78-1.24c6.19-0.86,13.28-2.56,20.79-4.36c20.06-4.81,45.03-10.8,69.23-4.49
		c33.25,8.67,45.64,45.37,45.64,66.47c0,24.28-7.24,47.23-16.58,66.51C244.58,183.41,238.87,177.94,229.45,175.85z"/>
	<path d="M32.19,89.15c-9.61-4.42-15.2,8-9.08,15.3c3.34,3.99,6.52,13.23,13.79,12.46C48.45,115.7,47.38,96.14,32.19,89.15z
		 M29.88,100.16c-0.54,0.65-1.27,1.02-2.04,1.02c-0.57,0-1.13-0.2-1.6-0.59c-0.47-0.38-0.84-0.93-1.06-1.56s-0.28-1.34-0.16-2.01
		c0.11-0.67,0.39-1.29,0.79-1.78c0.4-0.49,0.92-0.82,1.48-0.95c0.56-0.13,1.14-0.07,1.66,0.2s0.98,0.71,1.29,1.28
		c0.32,0.57,0.49,1.24,0.49,1.93C30.72,98.62,30.42,99.51,29.88,100.16z"/>
	<path d="M135.52,201.87c-0.03-0.14-0.1-0.26-0.19-0.35c-0.1-0.09-0.22-0.13-0.34-0.13c-2.61,0.03-16.4,0.2-22.25,0.23
		c-0.09,0-0.18,0.03-0.26,0.08c-0.08,0.05-0.15,0.13-0.19,0.22c-3.76,7.05-10.35,18.03-14.71,25.17c-0.07,0.12-0.11,0.26-0.1,0.41
		c0.01,0.15,0.06,0.28,0.14,0.39l6.09,8.05l-0.07,0.11c-0.02,0.04-0.05,0.09-0.07,0.13c-0.47,0.92-0.73,1.97-0.75,3.04
		c-0.02,1.08,0.21,2.14,0.66,3.08c0.45,0.94,1.1,1.72,1.88,2.26c0.79,0.54,1.68,0.83,2.59,0.83h25.88c0.68,0,1.36-0.16,1.99-0.48
		c0.63-0.31,1.2-0.77,1.68-1.35c0.48-0.58,0.85-1.27,1.1-2.02s0.37-1.56,0.35-2.36c-0.09-4.16-0.31-10.7-0.88-17.79
		C137.62,214.82,136.76,208.29,135.52,201.87z"/>
	<path d="M263.12,178.46c-0.04-0.12-0.1-0.23-0.18-0.3c-0.09-0.08-0.19-0.12-0.3-0.12c-0.11,0-0.21,0.03-0.3,0.1
		s-0.16,0.17-0.2,0.29c-0.7,2.08-1.49,4.12-2.37,6.1c-7.3,16.61-16.16,32.15-26.4,46.29c-0.09,0.12-0.13,0.27-0.13,0.43
		c0,0.16,0.05,0.31,0.14,0.43l1.77,2.27c-0.52,0.75-0.96,1.57-1.3,2.46c-0.37,0.98-0.52,2.05-0.46,3.13
		c0.07,1.07,0.36,2.11,0.84,3.01c0.43,0.86,1.03,1.57,1.75,2.06c0.72,0.5,1.53,0.77,2.35,0.79h26.87c0.66,0,1.32-0.16,1.93-0.48
		c0.61-0.31,1.17-0.77,1.63-1.35c0.46-0.58,0.83-1.26,1.07-2.01c0.24-0.75,0.36-1.55,0.35-2.35
		C269.93,226.24,268.69,197.53,263.12,178.46z"/>
</g>
</svg>
