<?xml version="1.0" encoding="utf-8"?>
<!-- Generator: Adobe Illustrator 24.0.0, SVG Export Plug-In . SVG Version: 6.00 Build 0)  -->
<svg version="1.1" id="Layer_1" xmlns="http://www.w3.org/2000/svg" xmlns:xlink="http://www.w3.org/1999/xlink" x="0px" y="0px"
	 viewBox="0 0 48 38" style="enable-background:new 0 0 48 38;" xml:space="preserve">
<style type="text/css">
	.st0{fill-rule:evenodd;clip-rule:evenodd;fill:#D64F4D;}
	.st1{fill:#7A7871;}
</style>
<g>
	<path class="st0" d="M12.26,8.74c-0.1,0.08-0.19,0.17-0.28,0.25c-0.22,0.2-0.43,0.39-0.64,0.59c-1.8,1.73-3.39,3.71-4.54,5.92
		c-1.15,2.22-1.83,4.66-1.77,7.07c0.03,1.09,0.21,2.24,0.85,3.21c0.11,0.17,0.23,0.33,0.37,0.48l2.28,2.56l0.02,0.02
		c0.26,0.29,0.57,0.55,0.94,0.75c0.54,0.3,1.19,0.45,1.88,0.39c0.59-0.05,1.15-0.25,1.65-0.52c0.49-0.27,0.92-0.59,1.31-0.92
		c0.77-0.66,1.4-1.33,2.06-1.76c1.19-0.77,2.73-0.99,4.28-1.03c1.56-0.04,3.23,0.09,4.99-0.33c2.14-0.5,4.12-1.79,5.53-3.52
		c1.41-1.73,2.21-3.85,2.31-5.94c0.1-2.19-0.57-4.32-1.89-5.94c-0.08-0.09-0.15-0.18-0.23-0.27l-2.3-2.58
		c-1.31-1.48-3.16-2.47-5.21-2.77c-2.26-0.34-4.65,0.16-6.79,1.15C15.29,6.36,13.7,7.48,12.26,8.74L12.26,8.74z M13.26,9.8
		c0.1-0.09,0.2-0.18,0.31-0.26c1.24-1.05,2.58-1.95,4-2.61c1.9-0.87,3.98-1.29,5.88-1.01c1.81,0.27,3.46,1.19,4.57,2.55
		c1.11,1.36,1.68,3.17,1.6,5.01c-0.08,1.75-0.77,3.55-1.93,4.97c-1.16,1.43-2.82,2.5-4.56,2.91c-1.44,0.34-3,0.24-4.66,0.28
		c-1.66,0.04-3.53,0.25-5.16,1.31c-0.92,0.59-1.59,1.33-2.25,1.9c-0.33,0.28-0.66,0.53-0.99,0.71c-0.33,0.18-0.67,0.29-0.98,0.32
		c-0.36,0.03-0.73-0.05-1.05-0.23C7.7,25.47,7.42,25.2,7.2,24.87c-0.43-0.66-0.6-1.55-0.63-2.49c-0.06-2.1,0.55-4.29,1.59-6.3
		c1.04-2.01,2.51-3.84,4.2-5.46C12.65,10.34,12.95,10.06,13.26,9.8L13.26,9.8z M14.17,10.83c-0.28,0.25-0.56,0.51-0.84,0.77
		c-1.58,1.52-2.93,3.22-3.87,5.02c-0.93,1.8-1.46,3.75-1.41,5.56c0.02,0.8,0.18,1.44,0.42,1.81c0.12,0.18,0.26,0.3,0.38,0.37
		c0.11,0.06,0.23,0.07,0.27,0.07c0.04,0,0.17-0.03,0.35-0.13c0.18-0.1,0.42-0.27,0.7-0.5c0.56-0.48,1.28-1.29,2.43-2.04
		c2.06-1.34,4.23-1.53,6-1.58c1.75-0.04,3.2,0.03,4.34-0.24c1.36-0.32,2.71-1.19,3.64-2.33c0.93-1.14,1.5-2.63,1.57-4.06
		c0.07-1.5-0.41-3.01-1.31-4.12c-0.9-1.11-2.28-1.88-3.75-2.09c-1.55-0.23-3.34,0.11-5,0.88c-1.26,0.58-2.47,1.39-3.61,2.36
		C14.36,10.67,14.27,10.75,14.17,10.83L14.17,10.83z M20.94,12.78c0.55-0.48,1.2-0.8,1.81-0.89c0.61-0.08,1.14,0.07,1.46,0.43
		s0.42,0.9,0.26,1.5c-0.16,0.6-0.55,1.2-1.1,1.69c-0.27,0.24-0.57,0.44-0.88,0.59c-0.31,0.15-0.63,0.25-0.93,0.29
		s-0.59,0.03-0.84-0.05c-0.25-0.07-0.46-0.2-0.62-0.38c-0.16-0.18-0.26-0.4-0.31-0.66c-0.04-0.26-0.03-0.54,0.05-0.84
		c0.08-0.3,0.22-0.6,0.4-0.89C20.43,13.29,20.67,13.01,20.94,12.78z"/>
	<path class="st1" d="M43.22,12.42c-2.43,2.13-2.73,6.24-2.73,6.24c-23.02-4.72-27.64,12.61-27.64,12.61s15.2,9.62,28.9-9.4
		c0,0,3.01,2.82,6.25,2.74c0,0-2.82-2.16-4.1-5.43C42.61,15.91,43.22,12.42,43.22,12.42z M18.64,28.8c-0.54,0.21-1.17-0.1-1.4-0.7
		c-0.23-0.59,0.02-1.25,0.56-1.46c0.54-0.21,1.17,0.1,1.4,0.69C19.42,27.94,19.17,28.59,18.64,28.8z M23.83,31.46
		c-0.03,0.13-0.11,0.23-0.22,0.27c-0.07,0.03-0.15,0.03-0.23,0.01c-0.21-0.06-0.34-0.29-0.29-0.5c0.8-3.89-2.11-5.68-2.24-5.76
		c-0.19-0.11-0.27-0.36-0.18-0.56c0.09-0.2,0.32-0.26,0.51-0.15C21.22,24.79,24.77,26.94,23.83,31.46z"/>
</g>
</svg>
