<?xml version="1.0" encoding="utf-8"?>
<!-- Generator: Adobe Illustrator 24.0.0, SVG Export Plug-In . SVG Version: 6.00 Build 0)  -->
<svg version="1.1" id="Layer_1" xmlns="http://www.w3.org/2000/svg" xmlns:xlink="http://www.w3.org/1999/xlink" x="0px" y="0px"
	 viewBox="0 0 26 26" style="enable-background:new 0 0 26 26;" xml:space="preserve">
<style type="text/css">
	.st0{fill:#C4C4C4;fill-opacity:0.5;}
	.st1{fill-rule:evenodd;clip-rule:evenodd;fill:#FFFFFF;}
</style>
<g>
	<circle class="st0" cx="13" cy="13" r="13"/>
	<path class="st1" d="M21,7.66c-0.59,0.28-1.22,0.47-1.89,0.56c0.68-0.44,1.2-1.13,1.44-1.96c-0.63,0.41-1.34,0.7-2.08,0.86
		C17.87,6.43,17.02,6,16.08,6c-1.81,0-3.28,1.58-3.28,3.53c0,0.28,0.03,0.55,0.08,0.81c-2.73-0.15-5.15-1.55-6.77-3.69
		C5.83,7.17,5.67,7.78,5.67,8.42c0,1.23,0.58,2.31,1.46,2.94c-0.54-0.02-1.04-0.18-1.49-0.44c0,0.01,0,0.03,0,0.04
		c0,1.71,1.13,3.14,2.63,3.47C8,14.51,7.71,14.56,7.41,14.56c-0.21,0-0.42-0.02-0.62-0.06c0.42,1.4,1.63,2.43,3.07,2.45
		c-1.12,0.95-2.54,1.51-4.08,1.51c-0.26,0-0.53-0.02-0.78-0.05c1.45,1,3.18,1.59,5.03,1.59c6.04,0,9.34-5.39,9.34-10.06
		c0-0.15,0-0.31-0.01-0.46C20,8.99,20.56,8.37,21,7.66z"/>
</g>
</svg>
