<?xml version="1.0" encoding="utf-8"?>
<!-- Generator: Adobe Illustrator 24.0.0, SVG Export Plug-In . SVG Version: 6.00 Build 0)  -->
<svg version="1.1" id="Layer_1" xmlns="http://www.w3.org/2000/svg" xmlns:xlink="http://www.w3.org/1999/xlink" x="0px" y="0px"
	 viewBox="0 0 26 26" style="enable-background:new 0 0 26 26;" xml:space="preserve">
<style type="text/css">
	.st0{fill:#C4C4C4;fill-opacity:0.5;}
	.st1{fill-rule:evenodd;clip-rule:evenodd;fill:#FFFFFF;}
</style>
<circle class="st0" cx="13" cy="13" r="13"/>
<path class="st1" d="M9.7,5.05C8.85,5.09,8.27,5.22,7.76,5.42C7.23,5.62,6.79,5.9,6.34,6.34C5.9,6.79,5.62,7.23,5.42,7.76
	C5.22,8.27,5.09,8.85,5.05,9.7C5.01,10.55,5,10.83,5,13s0.01,2.44,0.05,3.3c0.04,0.85,0.17,1.43,0.37,1.94
	c0.2,0.53,0.48,0.97,0.92,1.42c0.44,0.44,0.89,0.72,1.42,0.92c0.51,0.2,1.09,0.33,1.94,0.37C10.56,20.99,10.83,21,13,21
	c2.17,0,2.45-0.01,3.3-0.05c0.85-0.04,1.43-0.17,1.94-0.37c0.53-0.2,0.97-0.48,1.42-0.92c0.44-0.44,0.72-0.89,0.92-1.42
	c0.2-0.51,0.33-1.09,0.37-1.94C20.99,15.44,21,15.17,21,13s-0.01-2.45-0.05-3.3c-0.04-0.85-0.17-1.43-0.37-1.94
	c-0.2-0.53-0.48-0.97-0.92-1.42c-0.44-0.44-0.89-0.72-1.42-0.92c-0.51-0.2-1.09-0.33-1.94-0.37C15.45,5.01,15.17,5,13,5
	C10.83,5,10.56,5.01,9.7,5.05z M9.77,19.51c-0.78-0.04-1.2-0.17-1.49-0.28c-0.37-0.15-0.64-0.32-0.92-0.6
	c-0.28-0.28-0.45-0.55-0.6-0.92c-0.11-0.28-0.24-0.71-0.28-1.49c-0.04-0.84-0.05-1.1-0.05-3.23c0-2.14,0.01-2.39,0.05-3.23
	c0.04-0.78,0.17-1.2,0.28-1.49c0.15-0.37,0.32-0.64,0.6-0.92c0.28-0.28,0.55-0.45,0.92-0.6c0.28-0.11,0.71-0.24,1.49-0.28
	c0.84-0.04,1.1-0.05,3.23-0.05s2.39,0.01,3.23,0.05c0.78,0.04,1.2,0.17,1.49,0.28c0.37,0.14,0.64,0.32,0.92,0.6
	c0.28,0.28,0.45,0.55,0.6,0.92c0.11,0.28,0.24,0.71,0.28,1.49c0.04,0.84,0.05,1.1,0.05,3.23c0,2.14-0.01,2.39-0.05,3.23
	c-0.04,0.78-0.17,1.2-0.28,1.49c-0.15,0.37-0.32,0.64-0.6,0.92c-0.28,0.28-0.55,0.45-0.92,0.6c-0.28,0.11-0.71,0.24-1.49,0.28
	c-0.84,0.04-1.1,0.05-3.23,0.05C10.86,19.56,10.61,19.55,9.77,19.51z M16.31,8.73c0,0.53,0.43,0.96,0.96,0.96
	c0.53,0,0.96-0.43,0.96-0.96c0-0.53-0.43-0.96-0.96-0.96C16.74,7.77,16.31,8.2,16.31,8.73z M8.89,13c0,2.27,1.84,4.11,4.11,4.11
	c2.27,0,4.11-1.84,4.11-4.11c0-2.27-1.84-4.11-4.11-4.11C10.73,8.89,8.89,10.73,8.89,13z M10.33,13c0-1.47,1.19-2.67,2.67-2.67
	s2.67,1.19,2.67,2.67c0,1.47-1.19,2.67-2.67,2.67S10.33,14.47,10.33,13z"/>
</svg>
