<?xml version="1.0" encoding="utf-8"?>
<!-- Generator: Adobe Illustrator 24.0.0, SVG Export Plug-In . SVG Version: 6.00 Build 0)  -->
<svg version="1.1" id="Layer_1" xmlns="http://www.w3.org/2000/svg" xmlns:xlink="http://www.w3.org/1999/xlink" x="0px" y="0px"
	 viewBox="0 0 26 26" style="enable-background:new 0 0 26 26;" xml:space="preserve">
<style type="text/css">
	.st0{fill:#C4C4C4;fill-opacity:0.5;}
	.st1{fill-rule:evenodd;clip-rule:evenodd;fill:#FFFFFF;}
</style>
<g>
	<circle class="st0" cx="13" cy="13" r="13"/>
	<path class="st1" d="M16.01,11.77l-4.51-2.26c0,0-1.25-0.57-1.25,0.5v5.01c0,0,0.02,0.76,1.25,0.25c0.86-0.36,4.51-2.26,4.51-2.26
		S16.94,12.43,16.01,11.77z M21.52,16.79c-0.56,1.59-1.75,1.79-2.76,2c-1.48,0.31-10.99,0.27-12.53-0.25
		c-0.96-0.33-1.55-0.47-2.01-2.76c-0.29-1.47-0.31-5.78,0-7.27c0.3-1.44,1.05-2.12,2.51-2.26c3.92-0.37,10.47-0.32,12.53,0
		c1.91,0.3,2.31,1.43,2.51,2.51C22.09,10.5,22.13,15.05,21.52,16.79z"/>
</g>
</svg>
