<?xml version="1.0" encoding="utf-8"?>
<!-- Generator: Adobe Illustrator 24.0.0, SVG Export Plug-In . SVG Version: 6.00 Build 0)  -->
<svg version="1.1" id="Layer_1" xmlns="http://www.w3.org/2000/svg" xmlns:xlink="http://www.w3.org/1999/xlink" x="0px" y="0px"
	 viewBox="0 0 88.11 27.88" style="enable-background:new 0 0 88.11 27.88;" xml:space="preserve">
<style type="text/css">
	.st0{fill:#468E0D;}
</style>
<path class="st0" d="M0.02,16.05c0.41,0.72,5.25-1.52,13.1-4.55c4.54-1.76,9.21-3.2,13.95-4.3c5.71-1.31,11.57-1.82,17.42-1.49
	c5.79,0.37,11.46,1.79,16.74,4.2c4.42,1.97,8.65,4.35,12.63,7.1c2.85,1.98,5.16,3.8,6.93,5.2c-0.9,0.01-1.78,0.02-2.61,0.05
	c-2.17,0.07-4.13,0.21-5.77,0.41c-3.29,0.4-5.34,1.04-5.37,1.81c-0.03,0.78,1.98,1.55,5.23,2.16c1.63,0.31,3.57,0.58,5.73,0.79
	c1.08,0.11,2.21,0.2,3.39,0.28c0.59,0.03,1.19,0.07,1.8,0.1l0.92,0.04c0.19,0,0.2,0.02,0.63,0.01c0.3-0.01,0.6-0.05,0.89-0.13
	c0.5-0.13,0.96-0.38,1.35-0.73c0.39-0.35,0.68-0.78,0.87-1.27c0.12-0.31,0.2-0.64,0.23-0.97c0.02-0.2,0.02-0.39,0.02-0.59
	l-0.02-0.31c-0.02-0.38-0.06-0.75-0.11-1.11c-0.1-0.68-0.23-1.35-0.4-2.01c-0.32-1.25-0.65-2.29-0.98-3.33
	c-0.66-2.07-1.33-3.91-1.97-5.44c-1.28-3.06-2.45-4.86-3.2-4.67c-0.75,0.19-0.95,2.32-0.66,5.63c0.15,1.65,0.41,3.59,0.8,5.73
	c0.04,0.22,0.09,0.45,0.13,0.67c-1.65-1.96-3.45-3.78-5.38-5.47c-3.91-3.42-8.23-6.32-12.87-8.65C57.67,2.25,51.34,0.5,44.86,0.09
	C38.44-0.27,32,0.43,25.82,2.17c-4.96,1.4-9.76,3.31-14.33,5.7C3.78,11.97-0.34,15.43,0.02,16.05z"/>
</svg>
