<?xml version="1.0" encoding="utf-8"?>
<!-- Generator: Adobe Illustrator 24.0.0, SVG Export Plug-In . SVG Version: 6.00 Build 0)  -->
<svg version="1.1" id="Layer_1" xmlns="http://www.w3.org/2000/svg" xmlns:xlink="http://www.w3.org/1999/xlink" x="0px" y="0px"
	 viewBox="0 0 37 37" style="enable-background:new 0 0 37 37;" xml:space="preserve">
<style type="text/css">
	.st0{clip-path:url(#SVGID_2_);}
</style>
<g>
	<defs>
		<rect id="SVGID_1_" width="37" height="37"/>
	</defs>
	<clipPath id="SVGID_2_">
		<use xlink:href="#SVGID_1_"  style="overflow:visible;"/>
	</clipPath>
	<g class="st0">
		<path d="M37,18.5C37,8.3,28.7,0,18.5,0C8.3,0,0,8.3,0,18.5c0,6.13,3,11.59,7.65,14.96c0.08,0.08,0.16,0.12,0.25,0.16
			c3,2.14,6.66,3.37,10.61,3.37s7.61-1.23,10.61-3.37c0.08-0.04,0.16-0.12,0.25-0.16C34,30.09,37,24.63,37,18.5z M9.04,32.44v-0.78
			c0-5.22,4.23-9.46,9.46-9.46s9.46,4.23,9.46,9.46v0.78c-2.71,1.85-5.96,2.92-9.46,2.92S11.76,34.29,9.04,32.44z M13.57,15.62
			c0-2.71,2.22-4.93,4.93-4.93s4.93,2.22,4.93,4.93c0,2.71-2.22,4.93-4.93,4.93S13.57,18.34,13.57,15.62z M29.6,31.16
			c-0.21-4.69-3.29-8.59-7.52-10.03c1.81-1.15,3-3.21,3-5.51c0-3.62-2.96-6.58-6.58-6.58s-6.58,2.96-6.58,6.58
			c0,2.3,1.19,4.36,3,5.51c-4.23,1.44-7.32,5.39-7.52,10.03c-3.54-3.08-5.76-7.61-5.76-12.66c0-9.29,7.56-16.86,16.86-16.86
			c9.29,0,16.86,7.56,16.86,16.86C35.36,23.56,33.14,28.08,29.6,31.16z"/>
	</g>
</g>
</svg>
