<?xml version="1.0" encoding="utf-8"?>
<!-- Generator: Adobe Illustrator 24.0.0, SVG Export Plug-In . SVG Version: 6.00 Build 0)  -->
<svg version="1.1" id="Layer_1" xmlns="http://www.w3.org/2000/svg" xmlns:xlink="http://www.w3.org/1999/xlink" x="0px" y="0px"
	 viewBox="0 0 168 168" style="enable-background:new 0 0 168 168;" xml:space="preserve">
<style type="text/css">
	.st0{fill:#FFFFFF;stroke:url(#SVGID_1_);}
	.st1{fill:#333B41;}
</style>
<g>
	
		<linearGradient id="SVGID_1_" gradientUnits="userSpaceOnUse" x1="199.2028" y1="-207.3099" x2="401.7458" y2="-297.334" gradientTransform="matrix(1 0 0 -1 -213.5 -167)">
		<stop  offset="0" style="stop-color:#F9804B"/>
		<stop  offset="1" style="stop-color:#FE9013"/>
	</linearGradient>
	<path class="st0" d="M5,0.5h158c2.49,0,4.5,2.01,4.5,4.5v158c0,2.49-2.01,4.5-4.5,4.5H5c-2.49,0-4.5-2.01-4.5-4.5V5
		C0.5,2.51,2.51,0.5,5,0.5z"/>
	<path class="st1" d="M76.97,79.03c-0.05-0.02-0.11-0.04-0.16-0.06c-15.27-5.74-22.38,4.97-22.4,5c-0.15,0.22-0.37,0.39-0.64,0.48
		l-18.13,5.86c-1.03,0.33-1.86,0.98-2.41,1.81c-0.55,0.83-0.83,1.85-0.74,2.93l1.18,14.76c0.03,0.33,0.13,0.63,0.29,0.88
		c0.16,0.25,0.4,0.46,0.69,0.62c0.3,0.16,0.6,0.24,0.9,0.24c0.29,0,0.6-0.08,0.89-0.25l0,0l18.29-10.15
		c0.19-0.11,0.42-0.17,0.65-0.16c0.05,0,15.84,0.61,21.73,1.72c5.23,0.98,7.45-0.94,7.46-0.95l0,0c0.06-0.05,0.13-0.1,0.2-0.14
		l17.68-9.63H77.88v0c-0.11,0-0.22-0.01-0.33-0.04c-0.93-0.26-1.55-0.9-1.86-1.65c-0.18-0.44-0.26-0.92-0.23-1.38
		c0.03-0.48,0.18-0.95,0.44-1.36c0.38-0.6,0.98-1.04,1.8-1.17l15.88-4.96c0.87-0.27,1.41-1.01,1.57-1.82
		c0.07-0.36,0.07-0.74-0.01-1.1c-0.08-0.33-0.22-0.64-0.45-0.9c-0.52-0.59-1.49-0.92-3-0.65l-13.45,2.4v0
		c-0.22,0.04-0.45,0.02-0.67-0.07C77.37,79.18,77.17,79.11,76.97,79.03z M76.1,76.11V59.86c0-1.61,0.66-3.08,1.72-4.14
		c1.06-1.06,2.52-1.72,4.13-1.72h50.2c1.61,0,3.07,0.66,4.13,1.72s1.72,2.53,1.72,4.14v26.25c0,1.61-0.66,3.08-1.72,4.14
		c-1.06,1.06-2.52,1.72-4.13,1.72h-24.54l-21.56,11.74c-0.58,0.44-3.66,2.48-9.39,1.4c-5.24-0.98-18.73-1.57-21.03-1.67l-18.01,10
		l0,0c-0.65,0.36-1.36,0.55-2.07,0.55c-0.71,0-1.41-0.17-2.07-0.53c-0.66-0.36-1.2-0.85-1.59-1.44c-0.39-0.6-0.62-1.29-0.68-2.04
		l-1.18-14.76c-0.13-1.64,0.3-3.21,1.16-4.5c0.86-1.28,2.14-2.28,3.71-2.78l17.75-5.73C54.09,80.31,61.75,71.52,76.1,76.11z
		 M107.29,89.5h0.01h24.85c0.93,0,1.77-0.38,2.38-1c0.61-0.61,0.99-1.46,0.99-2.39V67.11H78.57v9.65l12.69-2.26
		c2.49-0.44,4.24,0.26,5.28,1.46c0.5,0.57,0.83,1.26,1,1.98c0.07,0.31,0.11,0.63,0.12,0.95h3.68c0.34,0,0.62,0.28,0.62,0.62
		s-0.28,0.62-0.62,0.62h-3.79c-0.19,0.91-0.63,1.77-1.29,2.45c0.09,0.11,0.14,0.24,0.14,0.39c0,0.34-0.28,0.62-0.62,0.62h-0.97
		c-0.16,0.07-0.33,0.14-0.51,0.19l-15.98,4.99c-0.09,0.03-0.18,0.05-0.28,0.05c-0.04,0.01-0.07,0.03-0.08,0.05
		c-0.03,0.05-0.05,0.11-0.05,0.19c-0.01,0.09,0.01,0.19,0.04,0.27c0.03,0.07,0.07,0.13,0.13,0.17H107.29z M123,77.46
		c0.92,0,1.78,0.23,2.53,0.64c0.3-0.16,0.63-0.3,0.96-0.4c0.5-0.15,1.03-0.24,1.56-0.24c1.48,0,2.81,0.6,3.78,1.57
		c0.97,0.97,1.57,2.31,1.57,3.79c0,1.48-0.6,2.82-1.57,3.79c-0.97,0.97-2.3,1.57-3.78,1.57c-0.54,0-1.06-0.08-1.56-0.24
		c-0.34-0.1-0.66-0.24-0.96-0.4c-0.75,0.41-1.61,0.64-2.53,0.64c-1.47,0-2.81-0.6-3.78-1.57c-0.97-0.97-1.57-2.31-1.57-3.79
		s0.6-2.82,1.57-3.79C120.19,78.06,121.52,77.46,123,77.46z M127,79.26c0.84,0.95,1.34,2.19,1.34,3.55s-0.51,2.61-1.34,3.55
		c0.33,0.1,0.68,0.15,1.06,0.15c1.02,0,1.94-0.41,2.61-1.08s1.08-1.6,1.08-2.62c0-1.02-0.41-1.95-1.08-2.62
		c-0.67-0.67-1.59-1.08-2.61-1.08C127.68,79.11,127.32,79.16,127,79.26z M125.61,80.19c-0.67-0.67-1.59-1.08-2.61-1.08
		c-1.02,0-1.94,0.41-2.61,1.08s-1.08,1.59-1.08,2.62c0,1.02,0.41,1.95,1.08,2.62s1.59,1.08,2.61,1.08c1.02,0,1.94-0.41,2.61-1.08
		s1.08-1.6,1.08-2.62C126.69,81.79,126.28,80.86,125.61,80.19z M98.6,83.58c-0.34,0-0.62-0.28-0.62-0.62c0-0.34,0.28-0.62,0.62-0.62
		h2.11c0.34,0,0.62,0.28,0.62,0.62c0,0.34-0.28,0.62-0.62,0.62H98.6z M122.59,73.05c-0.34,0-0.62-0.28-0.62-0.62
		s0.28-0.62,0.62-0.62h7.96c0.34,0,0.62,0.28,0.62,0.62s-0.28,0.62-0.62,0.62H122.59z M104.41,73.05c-0.34,0-0.62-0.28-0.62-0.62
		s0.28-0.62,0.62-0.62h11.49c0.34,0,0.62,0.28,0.62,0.62s-0.28,0.62-0.62,0.62H104.41z M80.98,73.05c-0.34,0-0.62-0.28-0.62-0.62
		s0.28-0.62,0.62-0.62h16.78c0.34,0,0.62,0.28,0.62,0.62s-0.28,0.62-0.62,0.62H80.98z M135.53,65.45v-4.76H78.57v4.76H135.53z
		 M135.42,59.04c-0.15-0.6-0.46-1.14-0.89-1.56c-0.61-0.61-1.46-1-2.38-1h-50.2c-0.93,0-1.77,0.38-2.38,1
		c-0.43,0.43-0.74,0.96-0.89,1.56H135.42z"/>
</g>
</svg>
