<?xml version="1.0" encoding="utf-8"?>
<!-- Generator: Adobe Illustrator 24.0.0, SVG Export Plug-In . SVG Version: 6.00 Build 0)  -->
<svg version="1.1" id="Layer_1" xmlns="http://www.w3.org/2000/svg" xmlns:xlink="http://www.w3.org/1999/xlink" x="0px" y="0px"
	 viewBox="0 0 168 168" style="enable-background:new 0 0 168 168;" xml:space="preserve">
<style type="text/css">
	.st0{fill:#FFFFFF;stroke:url(#SVGID_1_);}
	.st1{fill:#333B41;}
	.st2{fill-rule:evenodd;clip-rule:evenodd;fill:#333B41;}
	.st3{fill:none;stroke:#333B41;stroke-width:1.5;}
</style>
<g>
	
		<linearGradient id="SVGID_1_" gradientUnits="userSpaceOnUse" x1="199.2028" y1="-207.3099" x2="401.7458" y2="-297.334" gradientTransform="matrix(1 0 0 -1 -213.5 -167)">
		<stop  offset="0" style="stop-color:#F9804B"/>
		<stop  offset="1" style="stop-color:#FE9013"/>
	</linearGradient>
	<path class="st0" d="M5,0.5h158c2.49,0,4.5,2.01,4.5,4.5v158c0,2.49-2.01,4.5-4.5,4.5H5c-2.49,0-4.5-2.01-4.5-4.5V5
		C0.5,2.51,2.51,0.5,5,0.5z"/>
	<path class="st1" d="M79.97,43.26c-0.35-0.33-0.7-0.57-1.03-0.74c-0.33-0.15-0.7-0.24-1.11-0.24c-0.48,0-0.83,0.11-1.07,0.31
		c-0.24,0.2-0.37,0.52-0.37,0.96c0,0.31,0.13,0.59,0.39,0.79c0.26,0.22,0.57,0.41,0.96,0.61c0.39,0.2,0.81,0.39,1.24,0.61
		c0.44,0.22,0.85,0.46,1.25,0.76c0.39,0.31,0.7,0.66,0.96,1.09c0.26,0.44,0.39,0.96,0.39,1.57c0,0.94-0.26,1.75-0.76,2.42
		c-0.5,0.68-1.29,1.11-2.29,1.35v2.05h-1.9v-1.97c-0.57-0.07-1.18-0.22-1.81-0.48c-0.63-0.26-1.18-0.59-1.64-1l1.27-1.94
		c0.5,0.37,0.98,0.66,1.42,0.85c0.46,0.2,0.92,0.28,1.38,0.28c0.55,0,0.96-0.11,1.2-0.33c0.26-0.22,0.39-0.57,0.39-1.03
		c0-0.35-0.13-0.63-0.39-0.87c-0.26-0.24-0.57-0.46-0.96-0.68c-0.39-0.22-0.81-0.44-1.25-0.66c-0.44-0.22-0.85-0.48-1.25-0.79
		c-0.39-0.31-0.7-0.66-0.96-1.07c-0.26-0.41-0.39-0.9-0.39-1.49c0-0.96,0.26-1.77,0.79-2.4s1.27-1.05,2.18-1.22V38h1.9v1.99
		c0.63,0.09,1.18,0.28,1.66,0.57c0.48,0.28,0.9,0.63,1.29,1.05L79.97,43.26z"/>
	<path class="st2" d="M127,114l-3.59-2.21l-8.02,14.38l3.87,1.93L127,114z"/>
	<path class="st3" d="M121.47,111.24c-9.4-10.78-17.69-8.02-28.75-0.83c-9.68,6.36-16.86,1.94-24.05,4.98
		c-1.66,0.83-4.15,2.76-1.94,4.7c1.11,0.83,5.53,1.66,6.91,1.38c7.46-1.66,9.68,1.66,21.01-0.55c-3.32,2.49-14.1,0.83-20.73,1.66
		c-5.25,1.11-13.82-3.04-6.91-7.74c-3.04-1.38-5.81-2.21-9.12-2.49c-3.32-2.49-8.57-5.53-11.33-6.63c-2.21-1.38-7.74-0.83-4.15,2.76
		c3.59,3.32,13.27,10.78,15.2,11.89c7.74,4.7,14.93,8.02,22.39,12.16c0,0,2.49,1.38,7.46-0.55c3.59-1.66,19.63-10.5,23.5-9.12
		c2.21,0.83,3.32,1.38,3.32,1.38L121.47,111.24z"/>
	<path class="st2" d="M74.75,110.41c0.55-1.11,1.11-1.93,1.94-2.21c0.83-0.28,1.11,0.28,1.66,0.83c0.55,0.83,0.83,1.11,1.66,1.66
		c0.28,0.28,0.83,0.28,1.11,0.28l-0.55-0.28c-0.83-0.55-1.38-1.11-1.11-2.21c0-0.28-0.28-0.83,0.28-0.83
		c0.55,0.28,1.38,0.83,2.21,0.83c0,0,0.83,0.28,0.55,0c0-0.28-0.55-0.55-0.83-0.83c-1.66-1.38-1.66-1.66-1.66-3.59
		c0.28-2.76-0.83-4.98-2.76-6.91c-4.42-4.42-2.49-10.5,0.83-16.31c3.04-5.25,5.81-6.08,2.76-12.44c-1.11-2.76-3.04-5.53-3.32-7.19
		c0-0.55,0-0.28,0,0c-0.28,1.66,0.83,4.15,1.94,6.63c2.49,5.53,1.94,6.08-1.66,11.06c-3.87,4.98-6.63,10.23-4.98,15.76
		c1.11,3.87,6.63,7.74,3.87,10.23c-1.38,1.11-3.32,3.87-3.59,5.53c-0.28,0.83-0.28,0.83-0.55,1.38c-0.28,0.28,0,0.28,0.28,0.28
		C74.2,111.79,74.2,111.24,74.75,110.41z"/>
	<path class="st3" d="M93.07,84.53l0.91-0.26l0.04,0.95c0.15,3.25-1.24,7.15-3.53,10.23c-1.19,1.6-2.65,3.01-4.31,4.01
		c1.09-0.37,2.3-1.06,3.51-2.28c3.23-3.49,4.13-7.93,5.16-13.62c-0.97,0.09-1.92,0.3-2.89,0.59c-0.64,0.19-1.28,0.4-1.95,0.62
		c-0.04,0.01-0.08,0.03-0.12,0.04c-0.62,0.2-1.25,0.42-1.91,0.61c-5.13,1.89-7.9,4.25-8.91,6.96c-0.25,1.29-0.22,2.45,0.22,3.33
		l0.04,0.07l0.02,0.08c0.17,0.69,0.87,1.34,1.82,1.85c1.05-0.99,1.78-1.87,2.5-2.79c-0.18,0.18-0.34,0.35-0.49,0.52
		c-0.13,0.13-0.25,0.26-0.36,0.38c-0.2,0.2-0.39,0.39-0.56,0.54c-0.16,0.14-0.38,0.31-0.63,0.39l-0.19,0.06l-0.2-0.04
		c-0.89-0.18-1.57-0.67-1.84-1.5c-0.25-0.74-0.12-1.61,0.16-2.49c0.49-1.93,2.01-3.44,4.25-4.73
		C86.07,86.76,89.18,85.64,93.07,84.53z"/>
	<path class="st3" d="M66.36,66.36c-1.48-0.52-2.76-0.96-4.2-1.23c0.05,0.24,0.1,0.48,0.15,0.72c0.13,0.64,0.26,1.27,0.39,1.87
		c-0.04-0.45-0.04-0.89-0.02-1.31l0.05-0.95l0.91,0.27c3.33,0.97,6.03,1.96,8,3.07c1.76,0.99,3.05,2.14,3.66,3.56
		c-0.84-2.26-3.05-4.2-7.38-5.47l-0.01,0l-0.01,0C67.35,66.71,66.84,66.53,66.36,66.36z M65.68,75.33c-0.58-0.79-1.1-1.64-1.53-2.52
		c0.61,1.44,1.4,2.74,2.56,3.89l0.01,0.01l0.01,0.01c0.64,0.69,1.28,1.18,1.89,1.52C67.5,77.46,66.51,76.45,65.68,75.33z
		 M75.46,75.52c0.43-0.87,0.45-1.7,0.04-2.57c0.28,0.79,0.3,1.57,0.01,2.23c-0.31,0.71-0.92,1.21-1.68,1.4l-0.21,0.05l-0.21-0.07
		c-0.08-0.03-0.17-0.07-0.24-0.11c0.17,0.2,0.36,0.4,0.55,0.61l0.02,0c0.96-0.24,1.48-0.66,1.67-1.39l0.02-0.08L75.46,75.52z"/>
	<path class="st3" d="M90.78,66.67c-0.33,0.39-0.67,0.76-1.04,1.1c0.17-0.14,0.33-0.29,0.5-0.46
		C90.43,67.11,90.61,66.89,90.78,66.67z M93.99,57.46c0-0.01,0.01-0.03,0.01-0.04c-1.53,0.3-3.11,0.78-4.88,1.44v0l-0.01,0
		c-3.48,1.24-5.39,2.64-6.24,4.52c0.58-1.19,1.62-2.16,3.09-3c1.71-0.98,4.06-1.83,7.12-2.66L93.99,57.46z M83.91,67.16
		c-0.3-0.1-0.56-0.25-0.77-0.45c0.19,0.35,0.45,0.63,0.81,0.81c0.11-0.11,0.21-0.22,0.3-0.32c-0.03,0-0.07,0-0.1,0h-0.12
		L83.91,67.16z"/>
</g>
</svg>
