<?xml version="1.0" encoding="utf-8"?>
<!-- Generator: Adobe Illustrator 24.0.0, SVG Export Plug-In . SVG Version: 6.00 Build 0)  -->
<svg version="1.1" id="Layer_1" xmlns="http://www.w3.org/2000/svg" xmlns:xlink="http://www.w3.org/1999/xlink" x="0px" y="0px"
	 viewBox="0 0 82 52" style="enable-background:new 0 0 82 52;" xml:space="preserve">
<style type="text/css">
	.st0{fill-rule:evenodd;clip-rule:evenodd;fill:#FFFFFF;}
	.st1{fill:#FFFFFF;}
</style>
<path class="st0" d="M20.4,43.9c-0.2-1-1-2.2-1.6-3.5C19.3,41.6,19.8,42.7,20.4,43.9z M21.8,43.8c-0.8-1.4-1.3-2.9-1.8-4.5
	c-0.4-0.5-0.7-0.3-1.1-0.1c-0.6,0.6-1.1,0.7-0.5,1.2c0.8,1.4,1.4,2.6,1.8,4c0.2-0.1,0.5-0.3,0.7-0.4C21.2,43.9,21.3,43.6,21.8,43.8z
	 M18.2,39.2c-0.2-1-1-2.2-1.6-3.5C17.1,36.8,17.6,37.9,18.2,39.2z M16,34.3c-0.2-0.8-1-2.2-1.5-3.3c0.5,1.1,0.9,2,1.6,3.5
	C16.1,34.5,16.1,34.5,16,34.3z M17.4,34.2c-0.8-1.2-1.2-2.7-1.8-4.5c-0.3-0.3-0.7-0.1-1,0.1c-0.6,0.6-1.1,0.7-0.5,1.2
	c0.8,1.2,1.4,2.6,1.8,4c0.2-0.1,0.5-0.3,0.7-0.4C16.8,34.3,17,34.2,17.4,34.2z M13.8,29.6c-0.2-0.8-1-2.2-1.5-3.3
	c0.5,1.1,0.9,2,1.6,3.5L13.8,29.6z M15.2,29.5c-0.8-1.2-1.2-2.7-1.8-4.5c-0.3-0.3-0.7-0.1-1,0.1c-0.6,0.6-1.2,0.5-0.5,1.2
	c0.8,1.2,1.4,2.6,1.8,4c0.2-0.1,0.5-0.3,0.6-0.6C14.6,29.6,14.8,29.5,15.2,29.5z M14.9,34.7c-0.7-0.1-1.2-0.3-1.8-0.3
	C13.8,34.4,14.2,34.4,14.9,34.7c-1-0.3-1.7-0.6-2.6-0.8c0.7,0.3,1.4,0.3,2.4,0.7c-1.1-0.5-2-0.7-2.8-1.1c0.7,0.3,1.5,0.5,2.6,1.1
	c-0.9-0.6-1.9-1-2.9-1.3C12.5,33.5,13.6,34.1,14.9,34.7C15.2,34.8,15.2,34.8,14.9,34.7z M14.6,34.9c0,0-0.2,0.1-0.2-0.1
	c-1.2,0-2.3,0-3.3,0c0.9,0.2,1.9,0.1,2.9,0c-1,0.1-1.8,0.1-2.6,0.3c0.8,0,1.8-0.1,2.8-0.2c-0.8,0-1.6,0.2-2.3,0.4
	c1-0.1,1.7-0.3,2.6-0.3c-0.6,0.1-1.2,0.2-1.7,0.3c0.6-0.1,1.2-0.2,1.7-0.3C14.6,34.9,14.6,34.9,14.6,34.9z M15.1,36
	c-0.3,0.2-0.6,0.6-1.1,0.8C14.3,36.6,14.6,36.2,15.1,36c-0.5,0.3-1.1,0.8-1.6,1.1c0.5-0.3,0.9-0.8,1.4-1c-0.7,0.4-1.3,0.8-1.9,1.3
	c0.4-0.5,1.1-0.8,1.7-1.2c-0.7,0.4-1.3,0.8-2,1.1c0.7-0.4,1.4-1,2.2-1.5C15.2,35.7,15.2,35.9,15.1,36z M15.2,36.1
	C15,36.2,15,36.2,15,36.2c-0.7,0.8-1.1,1.6-1.5,2.2c0.3-0.7,0.8-1.4,1.2-1.8c-0.3,0.7-0.7,1.1-1.1,1.8c0.3-0.7,0.8-1.4,1.1-2
	c-0.3,0.7-0.5,1.2-0.7,1.6c0.2-0.4,0.6-1,0.9-1.7c-0.2,0.5-0.4,0.9-0.5,1.2c0.2-0.4,0.2-0.8,0.5-1.2L15.2,36.1z M15.6,35.7
	c0.2-0.1,0.2-0.1,0.3-0.2c0.1,0.2,0.1,0.2,0.3,0.3c0.8,1.4,1.4,2.6,1.8,4c0.2-0.1,0.5-0.3,0.7-0.4c0.2-0.4,0.4-0.5,0.8-0.5
	c-0.8-1.2-1.2-2.7-1.8-4.5c-0.3-0.3-0.7-0.1-1,0.1c-0.4,0.5-0.8,0.5-0.9,0.8c-0.1-0.2-0.3-0.3-0.4-0.5s-0.3-0.3-0.7-0.7
	c-1.1-0.5-2.8-1.1-3.7-1.3c0.2,0.5,1.6,1.2,2.7,1.7c-1.1-0.1-2.5,0-3.3,0.5c0.8,0.4,3.9,0.3,4.8,0c0,0,0.2-0.1,0.2,0.1
	c0.2,0.1,0.5,0.2,0.6,0.4c-0.2,0.1-0.3,0.2-0.6,0.1c0,0-0.2,0.1-0.5,0.3c-0.9,0.3-2,1.1-2.6,1.7c0.5,0.2,1.5-0.4,2.2-1
	c-0.5,0.7-1.1,1.8-1.4,2.4c0.7-0.2,2.1-2.3,2.1-3.1C15.4,35.8,15.4,35.8,15.6,35.7z"/>
<g>
	<path class="st1" d="M28.9,19c0,0.7,0.1,1.2,0.3,1.6c0.2,0.4,0.5,0.7,0.8,0.8s0.7,0.2,1.2,0.2c0.3,0,0.6,0,0.8-0.1
		c0.2,0,0.4-0.1,0.5-0.1l0-1.4c-0.1,0-0.2,0-0.4,0.1c-0.2,0-0.3,0-0.5,0c-0.2,0-0.4,0-0.5-0.1c-0.2-0.1-0.3-0.2-0.4-0.3
		s-0.2-0.4-0.2-0.8v-6.2h1.9v-1.3h-1.9V9.1h-1.7v2.4H27v1.3h1.8L28.9,19L28.9,19z"/>
	<path class="st1" d="M25.3,12.7c-0.3-0.4-0.8-0.8-1.3-1c-0.5-0.2-1.1-0.4-1.9-0.4c-0.6,0-1.1,0.1-1.6,0.3c-0.5,0.2-1,0.6-1.4,1
		c-0.4,0.4-0.7,1-1,1.6s-0.4,1.4-0.4,2.2v0.4c0,0.7,0.1,1.4,0.3,2c0.2,0.6,0.5,1.1,0.9,1.5c0.4,0.4,0.9,0.8,1.5,1
		c0.6,0.2,1.2,0.4,1.9,0.4c0.7,0,1.2-0.1,1.7-0.3s0.9-0.4,1.2-0.7c0.3-0.3,0.6-0.6,0.8-0.9l-1-0.8c-0.3,0.4-0.7,0.8-1.1,1
		c-0.4,0.2-0.9,0.4-1.5,0.4c-0.5,0-0.9-0.1-1.3-0.3s-0.7-0.4-0.9-0.7c-0.2-0.3-0.5-0.7-0.6-1.1c-0.1-0.4-0.2-0.8-0.2-1.2h6.8v-0.8
		c0-0.7-0.1-1.4-0.2-1.9C25.9,13.7,25.6,13.2,25.3,12.7z M24.6,15.6h-5c0-0.3,0.1-0.5,0.1-0.7c0.1-0.5,0.3-0.9,0.5-1.2
		c0.2-0.3,0.5-0.6,0.8-0.7c0.3-0.2,0.7-0.2,1.1-0.2c0.6,0,1,0.1,1.4,0.4c0.3,0.3,0.6,0.6,0.7,1c0.2,0.4,0.2,0.9,0.3,1.3
		C24.6,15.5,24.6,15.6,24.6,15.6z"/>
	<path class="st1" d="M34.6,35.2c-0.3-0.3-0.6-0.5-1-0.6c-0.4-0.1-0.8-0.2-1.3-0.2c-0.6,0-1.2,0.1-1.7,0.4s-0.9,0.6-1.3,1
		c0,0,0,0.1-0.1,0.1l0-1.3h-1.6v10h1.7v-7.2c0.1-0.2,0.2-0.4,0.4-0.6c0.2-0.3,0.5-0.6,0.9-0.7s0.7-0.3,1.2-0.3
		c0.4,0,0.8,0.1,1.1,0.2c0.3,0.1,0.5,0.4,0.7,0.7c0.2,0.3,0.2,0.7,0.2,1.3v6.6h1.7V38c0-0.7-0.1-1.2-0.2-1.7
		C35.1,35.8,34.9,35.4,34.6,35.2z"/>
	<path class="st1" d="M24.2,35.8c-0.4-0.5-0.9-0.8-1.5-1.1c-0.6-0.3-1.2-0.4-1.9-0.4c-0.7,0-1.3,0.1-1.9,0.4c-0.6,0.2-1,0.6-1.4,1.1
		c-0.4,0.5-0.7,1-0.9,1.6s-0.3,1.3-0.3,2v0.2c0,0.7,0.1,1.4,0.3,2c0.2,0.6,0.5,1.2,0.9,1.6s0.9,0.8,1.5,1.1c0.6,0.2,1.2,0.4,1.9,0.4
		c0.7,0,1.3-0.1,1.9-0.4c0.6-0.3,1-0.6,1.4-1.1c0.4-0.5,0.7-1,0.9-1.6c0.2-0.6,0.3-1.3,0.3-2v-0.2c0-0.7-0.1-1.4-0.3-2
		C24.9,36.8,24.6,36.2,24.2,35.8z M23.7,39.6c0,0.5-0.1,1-0.2,1.4c-0.1,0.4-0.3,0.8-0.5,1.2c-0.2,0.3-0.5,0.6-0.9,0.8
		c-0.4,0.2-0.8,0.3-1.2,0.3c-0.5,0-0.9-0.1-1.2-0.3c-0.4-0.2-0.7-0.5-0.9-0.8s-0.4-0.7-0.5-1.2C18,40.6,18,40.1,18,39.6v-0.2
		c0-0.5,0.1-1,0.2-1.4c0.1-0.5,0.3-0.8,0.5-1.2c0.2-0.3,0.5-0.6,0.9-0.8c0.4-0.2,0.8-0.3,1.2-0.3c0.5,0,0.9,0.1,1.2,0.3
		c0.4,0.2,0.7,0.5,0.9,0.8c0.2,0.3,0.4,0.7,0.5,1.2c0.1,0.4,0.2,0.9,0.2,1.4V39.6z"/>
	<path class="st1" d="M15.8,10c-0.4-0.6-0.9-1.1-1.6-1.5C13.5,8.2,12.6,8,11.6,8h-5v13.5h1.8v-5.3h3.2c1,0,1.9-0.2,2.6-0.5
		c0.7-0.3,1.2-0.8,1.6-1.4s0.6-1.4,0.6-2.2C16.3,11.4,16.1,10.6,15.8,10z M14.2,13.5c-0.2,0.4-0.5,0.7-0.9,0.9
		c-0.4,0.2-1,0.3-1.7,0.3H8.4V9.5h3.2c0.7,0,1.3,0.1,1.7,0.4c0.4,0.2,0.8,0.6,0.9,1c0.2,0.4,0.3,0.8,0.3,1.3
		C14.5,12.7,14.4,13.1,14.2,13.5z"/>
	<rect x="38.2" y="30.3" class="st1" width="1.7" height="14.3"/>
	<path class="st1" d="M54.3,35.2c-0.3-0.3-0.6-0.5-1-0.6c-0.4-0.1-0.8-0.2-1.3-0.2c-0.6,0-1.2,0.1-1.7,0.4s-0.9,0.6-1.3,1
		c0,0,0,0.1-0.1,0.1l0-1.3h-1.6v10H49v-7.2c0.1-0.2,0.2-0.4,0.4-0.6c0.2-0.3,0.5-0.6,0.9-0.7c0.3-0.2,0.7-0.3,1.2-0.3
		c0.4,0,0.8,0.1,1.1,0.2c0.3,0.1,0.5,0.4,0.7,0.7c0.2,0.3,0.2,0.7,0.2,1.3v6.6h1.7V38c0-0.7-0.1-1.2-0.2-1.7
		C54.8,35.8,54.6,35.4,54.3,35.2z"/>
	<path class="st1" d="M59.3,20.3c0.4-0.5,0.7-1,0.9-1.6c0.2-0.6,0.3-1.3,0.3-2v-0.2c0-0.7-0.1-1.4-0.3-2c-0.2-0.6-0.5-1.2-0.9-1.6
		c-0.4-0.5-0.9-0.8-1.5-1.1c-0.6-0.3-1.2-0.4-1.9-0.4s-1.3,0.1-1.9,0.4c-0.6,0.2-1,0.6-1.4,1.1c-0.4,0.5-0.7,1-0.9,1.6
		s-0.3,1.3-0.3,2v0.2c0,0.7,0.1,1.4,0.3,2c0.2,0.6,0.5,1.2,0.9,1.6c0.4,0.5,0.9,0.8,1.5,1.1c0.6,0.2,1.2,0.4,1.9,0.4
		c0.7,0,1.3-0.1,1.9-0.4C58.4,21.1,58.9,20.7,59.3,20.3z M57.2,20c-0.3,0.2-0.8,0.3-1.2,0.3c-0.5,0-0.9-0.1-1.2-0.3
		c-0.4-0.2-0.7-0.5-0.9-0.8s-0.4-0.7-0.5-1.2c-0.1-0.5-0.2-0.9-0.2-1.4v-0.2c0-0.5,0.1-1,0.2-1.4c0.1-0.4,0.3-0.8,0.5-1.2
		c0.2-0.4,0.5-0.6,0.9-0.8c0.4-0.2,0.8-0.3,1.2-0.3c0.5,0,0.9,0.1,1.2,0.3c0.4,0.2,0.7,0.5,0.9,0.8c0.2,0.3,0.4,0.7,0.5,1.2
		c0.1,0.4,0.2,0.9,0.2,1.4v0.2c0,0.5-0.1,1-0.2,1.4c-0.1,0.4-0.3,0.8-0.5,1.2C57.8,19.6,57.5,19.8,57.2,20z"/>
	<path class="st1" d="M66.8,11.3c-0.5,0-1,0.1-1.4,0.4c-0.4,0.2-0.7,0.6-1,1c0,0,0,0,0,0l0-1.2h-1.7v10h1.7v-7.1
		c0.1-0.3,0.3-0.5,0.5-0.7c0.2-0.2,0.5-0.4,0.8-0.5c0.3-0.1,0.7-0.2,1.1-0.2c0.2,0,0.3,0,0.4,0s0.3,0,0.4,0.1l0-1.6
		c-0.1,0-0.2-0.1-0.3-0.1C67,11.3,66.9,11.3,66.8,11.3z"/>
	<path class="st1" d="M64.9,35.7c-0.3-0.5-0.8-0.8-1.3-1c-0.5-0.2-1.1-0.4-1.9-0.4c-0.6,0-1.1,0.1-1.6,0.3s-1,0.6-1.4,1
		c-0.4,0.5-0.7,1-1,1.6c-0.2,0.6-0.4,1.4-0.4,2.2v0.4c0,0.7,0.1,1.4,0.3,2s0.5,1.1,0.9,1.5c0.4,0.4,0.9,0.8,1.5,1
		c0.6,0.2,1.2,0.3,1.9,0.3c0.7,0,1.2-0.1,1.7-0.3s0.9-0.4,1.2-0.7c0.3-0.3,0.6-0.6,0.8-0.9l-1-0.8c-0.3,0.4-0.7,0.8-1.1,1
		c-0.4,0.2-0.9,0.4-1.5,0.4c-0.5,0-0.9-0.1-1.3-0.3s-0.7-0.4-0.9-0.7c-0.2-0.3-0.5-0.7-0.6-1.1c-0.1-0.4-0.2-0.8-0.2-1.2h6.8v-0.8
		c0-0.7-0.1-1.4-0.2-2C65.5,36.7,65.2,36.2,64.9,35.7z M64.2,38.6h-5c0-0.3,0.1-0.5,0.1-0.7c0.1-0.5,0.3-0.9,0.5-1.2
		c0.2-0.3,0.5-0.6,0.8-0.7c0.3-0.2,0.7-0.2,1.1-0.2c0.6,0,1,0.1,1.4,0.4s0.6,0.6,0.7,1c0.2,0.4,0.2,0.8,0.3,1.3V38.6z"/>
	<path class="st1" d="M72.6,19l-2.5-7.5h-1.9l3.6,9.9l-0.4,1c-0.1,0.4-0.3,0.7-0.5,1c-0.2,0.2-0.4,0.4-0.7,0.5
		c-0.3,0.1-0.6,0.2-1,0.2c0,0-0.1,0-0.2,0s-0.2,0-0.2,0l0,1.4c0.1,0,0.2,0.1,0.4,0.1c0.2,0,0.4,0.1,0.5,0.1c0.5,0,0.8-0.1,1.2-0.2
		c0.3-0.2,0.6-0.4,0.8-0.6c0.2-0.3,0.4-0.5,0.6-0.8c0.2-0.3,0.3-0.5,0.4-0.8l4-11.6h-1.9L72.6,19z"/>
	<path class="st1" d="M48.7,21.7c0.3,0,0.6,0,0.8-0.1c0.2,0,0.4-0.1,0.5-0.1l0-1.4c-0.1,0-0.2,0-0.4,0.1c-0.2,0-0.3,0-0.5,0
		c-0.2,0-0.4,0-0.5-0.1c-0.2-0.1-0.3-0.2-0.4-0.3s-0.2-0.4-0.2-0.8v-6.2H50v-1.3h-1.9V9.1h-1.7v2.4h-1.8v1.3h1.8V19
		c0,0.7,0.1,1.2,0.3,1.6c0.2,0.4,0.5,0.7,0.8,0.8C47.9,21.6,48.3,21.7,48.7,21.7z"/>
	<rect x="42.8" y="34.5" class="st1" width="1.7" height="10"/>
	<path class="st1" d="M43.4,19.6c0.2-0.5,0.3-0.9,0.3-1.5c0-0.5-0.1-1-0.3-1.4c-0.2-0.4-0.4-0.8-0.8-1.1c-0.4-0.3-0.8-0.6-1.4-0.9
		c-0.6-0.3-1.2-0.5-2-0.7c-0.6-0.1-1-0.3-1.4-0.5c-0.4-0.2-0.7-0.4-1-0.6c-0.2-0.2-0.4-0.4-0.6-0.6c-0.1-0.2-0.2-0.5-0.2-0.8
		c0-0.4,0.1-0.8,0.3-1.1c0.2-0.3,0.5-0.6,0.9-0.8c0.4-0.2,0.9-0.3,1.6-0.3c0.7,0,1.2,0.1,1.7,0.3c0.4,0.2,0.8,0.5,1,0.9
		c0.2,0.4,0.3,0.8,0.3,1.4h1.8c0-0.7-0.2-1.4-0.6-2c-0.4-0.6-0.9-1.1-1.6-1.5C40.8,8.1,40,7.9,39,7.9c-0.7,0-1.3,0.1-1.9,0.3
		s-1,0.4-1.5,0.8c-0.4,0.3-0.7,0.7-0.9,1.2s-0.3,0.9-0.3,1.5s0.1,1,0.3,1.4c0.2,0.4,0.5,0.8,0.9,1.1c0.4,0.3,0.8,0.6,1.4,0.8
		s1.1,0.5,1.8,0.7c0.6,0.2,1.2,0.4,1.6,0.6c0.4,0.2,0.8,0.4,1,0.6c0.2,0.2,0.4,0.4,0.5,0.7c0.1,0.2,0.2,0.5,0.2,0.8
		c0,0.4-0.1,0.8-0.3,1.1c-0.2,0.3-0.5,0.6-1,0.7s-1,0.3-1.6,0.3c-0.4,0-0.8,0-1.2-0.1c-0.4-0.1-0.8-0.3-1.1-0.5
		c-0.3-0.2-0.5-0.5-0.7-0.8s-0.3-0.7-0.3-1.2h-1.8c0,0.7,0.2,1.3,0.4,1.8c0.3,0.5,0.7,0.9,1.2,1.3c0.5,0.4,1,0.6,1.6,0.8
		c0.6,0.2,1.2,0.3,1.8,0.3c0.7,0,1.4-0.1,1.9-0.2c0.6-0.2,1.1-0.4,1.5-0.7C42.9,20.4,43.2,20,43.4,19.6z"/>
	<path class="st1" d="M43.7,30.8c-0.3,0-0.6,0.1-0.8,0.3s-0.2,0.4-0.2,0.7c0,0.3,0.1,0.5,0.2,0.7s0.4,0.3,0.8,0.3
		c0.3,0,0.6-0.1,0.8-0.3c0.2-0.2,0.3-0.4,0.3-0.7c0-0.3-0.1-0.5-0.3-0.7C44.3,30.9,44,30.8,43.7,30.8z"/>
	<path class="st1" d="M80,0H2C0.9,0,0,0.9,0,2v48c0,1.1,0.9,2,2,2h78c1.1,0,2-0.9,2-2V2C82,0.9,81.1,0,80,0z M81,50c0,0.5-0.4,1-1,1
		H2c-0.5,0-1-0.5-1-1V2c0-0.5,0.5-1,1-1h78c0.6,0,1,0.5,1,1V50z"/>
</g>
</svg>
