<?xml version="1.0" encoding="utf-8"?>
<!-- Generator: Adobe Illustrator 24.0.0, SVG Export Plug-In . SVG Version: 6.00 Build 0)  -->
<svg version="1.1" id="Layer_1" xmlns="http://www.w3.org/2000/svg" xmlns:xlink="http://www.w3.org/1999/xlink" x="0px" y="0px"
	 viewBox="0 0 168 168" style="enable-background:new 0 0 168 168;" xml:space="preserve">
<style type="text/css">
	.st0{fill:#FFFFFF;stroke:url(#SVGID_1_);}
	.st1{fill:#333B41;stroke:#333B41;stroke-width:0.7;}
</style>
<g>
	
		<linearGradient id="SVGID_1_" gradientUnits="userSpaceOnUse" x1="199.2028" y1="-207.3099" x2="401.7458" y2="-297.334" gradientTransform="matrix(1 0 0 -1 -213.5 -167)">
		<stop  offset="0" style="stop-color:#F9804B"/>
		<stop  offset="1" style="stop-color:#FE9013"/>
	</linearGradient>
	<path class="st0" d="M5,0.5h158c2.49,0,4.5,2.01,4.5,4.5v158c0,2.49-2.01,4.5-4.5,4.5H5c-2.49,0-4.5-2.01-4.5-4.5V5
		C0.5,2.51,2.51,0.5,5,0.5z"/>
	<path class="st1" d="M66.4,97.05c-0.18-0.34-0.36-0.62-0.48-0.97c-0.84-1.93-0.84-3.41-0.54-5.28c0.24-1.36,0.18-2.05-0.24-2.56
		c-0.48-0.57-1.2-0.62-2.22-0.74h-0.18c-0.3-0.06-0.6-0.06-0.84-0.06c-2.34-0.11-3.66-0.06-4.26,0.8c-0.6,0.8-0.18,1.99,0.66,3.69
		c0.42,0.85,0.6,1.7,0.72,2.33c-1.02,0.06-2.22,0.51-3.66,1.08c-2.94,1.14-6.97,2.73-11.89,1.31c-5.83-1.65-10.69-6.02-13.33-8.41
		c-1.26-1.14-1.8-1.65-2.22-1.76c-0.6-0.17-1.38,0.23-1.8,0.45l-0.24,0.11c-0.3,0.23-0.72,0.57-0.9,0.97
		c-0.42,1.31-0.48,3.75,0.54,6.48c-0.36-0.17-0.6-0.23-0.84-0.28c-0.6-0.06-1.26,0.4-1.8,0.91l-0.18,0.17
		c-0.3,0.28-0.66,0.74-0.66,1.19c-0.12,2.1,0.96,5.4,3.54,8.46h-0.06c-0.6,0.11-1.14,0.8-1.5,1.42v0.23
		c-0.18,0.4-0.36,0.91-0.3,1.36c0.6,2.33,3.06,5.68,7.21,8.01c2.52,1.42,6.37,2.78,11.65,2.78c2.34,0,4.99-0.28,7.87-0.96
		c6.85-1.59,13.21-6.19,15.8-11.59C67.84,103.02,67.9,99.84,66.4,97.05z M26.03,88.31c0,0,0.06-0.06,0.06-0.11
		c0.12,0.23,0.3,0.51,0.48,0.8c1.56,2.67,4.99,8.69,13.03,11.7c-4.99-1.19-9.43-3.64-12.07-5.11c-0.18-0.11-0.36-0.23-0.54-0.28
		C25.73,92.51,25.55,89.78,26.03,88.31z M23.15,96.6c0,0,0-0.11,0.12-0.23c0.18,0.17,0.48,0.51,0.78,0.8
		c2.52,2.67,8.47,8.98,19.34,9.6c0.36,0,0.66,0,1.02,0c1.08,0,2.22-0.11,3.24-0.34c-0.12,0.06-0.3,0.06-0.42,0.11
		c-6.79,1.53-14.3-0.17-18.32-1.08c-0.66-0.17-1.2-0.28-1.62-0.34C24.23,102.11,23.03,98.59,23.15,96.6z M65.26,105.86
		c-2.46,5.06-8.47,9.49-15.02,10.96c-16.7,3.81-24.51-5.34-25.47-9.09c0-0.06,0-0.11,0.06-0.29c0.3,0.11,0.66,0.34,1.02,0.57
		c3.42,1.99,11.41,6.59,22.52,4.03c7.33-1.65,11.05-6.99,13.21-10.91c0.12-0.23,0.06-0.57-0.24-0.68c-0.24-0.11-0.6-0.06-0.72,0.23
		c-2.04,3.69-5.65,8.81-12.55,10.4c-10.69,2.44-18.38-2.04-21.68-3.92c-0.48-0.28-0.84-0.51-1.14-0.62c0.24-0.34,0.48-0.57,0.6-0.57
		c0.3-0.06,1.56,0.23,2.76,0.51c2.88,0.68,7.57,1.7,12.55,1.7c2.04,0,4.2-0.17,6.25-0.68c5.29-1.19,8.41-4.2,10.93-7.27
		c0.18-0.23,0.12-0.57-0.12-0.74c-0.24-0.17-0.6-0.11-0.78,0.11c-0.24,0.28-0.54,0.63-0.78,0.91c-4.26,3.75-8.65,5.45-13.33,5.17
		c-10.39-0.57-16.16-6.65-18.62-9.26c-0.36-0.4-0.6-0.62-0.84-0.85c0.3-0.23,0.54-0.34,0.66-0.34c0.3,0.06,1.32,0.62,2.34,1.19
		c3.48,1.93,9.97,5.51,16.82,5.91c0.36,0,0.66,0,1.02,0c2.4,0,4.44-0.45,6.25-1.19h0.06c0.06,0,0.06-0.06,0.12-0.06
		c2.28-0.91,4.08-2.16,5.65-3.18c0.54-0.34,1.02-0.68,1.44-0.97c0.24-0.17,0.3-0.45,0.18-0.68c-0.18-0.23-0.48-0.28-0.72-0.17
		c-0.48,0.28-0.96,0.62-1.5,0.97c-1.56,1.02-3.36,2.27-5.65,3.12c-2.94,0.85-5.83,0.91-8.59,0.11c-9.13-2.56-12.85-9.09-14.48-11.87
		c-0.24-0.4-0.36-0.68-0.54-0.91c0.3-0.11,0.48-0.17,0.6-0.17c0.24,0.11,1.02,0.8,1.8,1.53c2.64,2.39,7.63,6.87,13.7,8.58
		c1.5,0.4,2.94,0.57,4.26,0.57c3.36,0,6.13-1.08,8.35-1.93c1.56-0.62,2.88-1.14,3.78-0.97h0.06h0.06c0,0,0,0,0.06,0
		s0.06,0,0.12-0.06c0,0,0.06,0,0.06-0.06c0.06,0,0.06-0.06,0.12-0.06l0.06-0.06c0,0,0.06-0.06,0.06-0.11c0-0.06,0-0.06,0.06-0.11
		c0,0,0,0,0-0.06v-0.06V94.5c-0.06-0.68-0.24-2.05-0.84-3.29c-0.3-0.62-1.08-2.22-0.72-2.67c0.3-0.45,1.92-0.4,3.36-0.34
		c0.24,0,0.48,0,0.72,0.06h0.18c0.78,0.06,1.32,0.17,1.5,0.34c0.18,0.23,0.18,0.8,0.06,1.76C64,92.34,64,94.04,64.96,96.2
		c0.12,0.34,0.3,0.68,0.48,1.02C66.76,100.01,66.7,102.85,65.26,105.86z"/>
	<path class="st1" d="M63.7,104.89c-0.24-0.11-0.6,0-0.72,0.23c-2.28,4.66-7.87,8.75-13.94,10.11c-0.3,0.06-0.48,0.34-0.42,0.62
		c0.06,0.23,0.3,0.4,0.54,0.4c0.06,0,0.06,0,0.12,0c6.43-1.42,12.31-5.74,14.72-10.68C64.12,105.35,64,105.06,63.7,104.89z"/>
	<path class="st1" d="M89.63,48.01c-3.2-0.1-6.34,0.82-8.98,2.63c-2.64,1.81-4.64,4.42-5.7,7.45c-0.05,0.14-0.14,0.27-0.25,0.37
		c-0.11,0.1-0.25,0.16-0.4,0.19c-1.62,0.28-3.09,1.12-4.14,2.39c-1.05,1.27-1.62,2.87-1.6,4.52c0.02,1.65,0.62,3.24,1.71,4.48
		s2.57,2.06,4.2,2.3c0.16,0.02,0.31,0.09,0.44,0.2s0.21,0.25,0.25,0.41c0.8,2.98,2.51,5.62,4.9,7.56c2.39,1.94,5.33,3.06,8.39,3.22
		c-0.67,2.45-1.07,4.97-1.21,7.51l-5.06-0.8c-1.07-0.17-2.16,0.09-3.03,0.73c-0.87,0.64-1.46,1.6-1.63,2.67
		c-0.17,1.07,0.09,2.17,0.73,3.04c0.64,0.88,1.59,1.47,2.66,1.63l6.87,1.09c0.2,1.07,0.44,2.13,0.73,3.17
		c-1.56,1.71-2.43,3.94-2.43,6.26v1.45c0,0.22-0.09,0.44-0.25,0.59c-0.16,0.16-0.37,0.25-0.59,0.25h-0.5
		c-0.59,0-1.18,0.12-1.73,0.35c-0.55,0.23-1.05,0.56-1.47,0.99c-0.42,0.42-0.75,0.92-0.98,1.47c-0.23,0.55-0.35,1.14-0.35,1.74v1.19
		c0,0.33,0.07,0.67,0.19,0.98c0.13,0.31,0.32,0.59,0.55,0.83c0.24,0.24,0.52,0.42,0.82,0.55c0.31,0.13,0.64,0.19,0.97,0.19h32.2
		c4.33,0,8.61-0.92,12.56-2.69c3.95-1.78,7.48-4.37,10.37-7.61c4.56-4.59,7.61-10.48,8.73-16.86c0.69-5.55-0.81-11.14-4.18-15.6
		c-2.63-3.39-6.2-5.92-10.27-7.26c-2.81-0.85-5.81-0.78-8.57,0.21s-5.14,2.82-6.79,5.26c-0.31,0.46-0.53,0.98-0.65,1.53
		c-0.11,0.55-0.12,1.11-0.01,1.66c0.1,0.55,0.31,1.07,0.62,1.54c0.31,0.47,0.7,0.87,1.16,1.18c0.46,0.31,0.98,0.53,1.52,0.65
		c0.54,0.11,1.11,0.12,1.65,0.01c0.55-0.1,1.07-0.32,1.53-0.62c0.46-0.31,0.86-0.7,1.18-1.16c0.63-0.93,1.53-1.63,2.58-2.01
		c1.05-0.38,2.19-0.43,3.26-0.12c2.41,0.82,4.53,2.33,6.1,4.34c1.97,2.62,2.87,5.9,2.51,9.16c-0.87,4.67-3.15,8.96-6.53,12.29
		c-3.23,3.72-7.6,6.25-12.41,7.22c-0.04,0.01-0.08,0.01-0.12-0.01c-0.04-0.01-0.07-0.03-0.1-0.06c-0.03-0.03-0.05-0.06-0.06-0.1
		c-0.01-0.04-0.01-0.08,0-0.12c1.49-6.25,1.06-12.81-1.21-18.82c-1.17-3.77-3.11-7.25-5.71-10.21c-2.6-2.96-5.79-5.34-9.37-6.98
		c0.18-0.47,0.33-0.94,0.46-1.43c0.04-0.16,0.13-0.3,0.25-0.41c0.12-0.11,0.27-0.18,0.44-0.2c1.63-0.24,3.11-1.05,4.2-2.3
		c1.08-1.24,1.69-2.83,1.7-4.48c0.02-1.65-0.55-3.25-1.61-4.52s-2.52-2.11-4.15-2.39c-0.15-0.02-0.29-0.09-0.4-0.19
		c-0.11-0.1-0.2-0.22-0.25-0.37c-1.01-2.87-2.86-5.37-5.31-7.17C95.59,49.12,92.66,48.1,89.63,48.01z M88.68,49.11
		c2.96-0.1,5.88,0.76,8.33,2.44c2.45,1.68,4.3,4.1,5.28,6.91c0.12,0.33,0.32,0.62,0.58,0.84c0.27,0.22,0.59,0.37,0.93,0.43
		c1.36,0.23,2.6,0.94,3.48,2.01c0.89,1.06,1.36,2.41,1.35,3.79c-0.02,1.39-0.52,2.72-1.43,3.76c-0.91,1.04-2.16,1.73-3.52,1.93
		c-0.38,0.06-0.73,0.22-1.01,0.47c-0.28,0.25-0.49,0.58-0.59,0.95c-0.42,1.57-1.12,3.05-2.07,4.38c0.13-2.59-0.76-5.12-2.49-7.06
		c-0.02-0.03-0.03-0.06-0.04-0.09c-0.01-0.03-0.01-0.07,0-0.1c0.01-0.03,0.02-0.06,0.04-0.09c0.02-0.03,0.04-0.05,0.07-0.07
		c1.37-1.17,2.24-2.82,2.46-4.62c0.21-1.79-0.25-3.6-1.31-5.07c-1.05-1.46-2.62-2.48-4.38-2.84c-1.76-0.36-3.6-0.04-5.14,0.89
		c-0.22,0.13-0.48,0.21-0.74,0.21c-0.26,0-0.52-0.07-0.74-0.21h-0.02c-1.54-0.93-3.37-1.24-5.13-0.88s-3.32,1.38-4.37,2.84
		c-1.05,1.46-1.52,3.27-1.31,5.06c0.21,1.79,1.09,3.44,2.45,4.61c0.02,0.02,0.04,0.05,0.05,0.08c0.01,0.03,0.02,0.06,0.02,0.09
		c0,0.03-0.01,0.06-0.02,0.09c-0.01,0.03-0.03,0.06-0.05,0.08c-1.24,1.39-2.05,3.11-2.36,4.95c-0.34-0.73-0.62-1.49-0.83-2.27
		c-0.1-0.37-0.3-0.7-0.58-0.95c-0.28-0.25-0.63-0.42-1.01-0.47c-1.37-0.2-2.61-0.89-3.52-1.93c-0.91-1.04-1.41-2.38-1.43-3.76
		s0.46-2.73,1.35-3.79c0.89-1.06,2.12-1.77,3.48-2.01c0.34-0.06,0.66-0.21,0.93-0.43c0.27-0.22,0.47-0.52,0.58-0.84
		c0.93-2.66,2.65-4.98,4.92-6.65C83.15,50.15,85.87,49.2,88.68,49.11z M83.82,58.07c0.16-0.01,0.31-0.01,0.47,0
		c1.02,0.04,2,0.34,2.87,0.87c0.4,0.24,0.85,0.36,1.31,0.36c0.46,0,0.91-0.13,1.31-0.36c1.3-0.78,2.85-1.05,4.34-0.74
		c1.49,0.31,2.81,1.16,3.7,2.4c0.89,1.24,1.28,2.77,1.1,4.28c-0.18,1.52-0.92,2.91-2.07,3.9c-0.14,0.12-0.25,0.26-0.33,0.42
		c-0.08,0.16-0.13,0.34-0.14,0.52c-0.01,0.18,0.01,0.36,0.07,0.53c0.06,0.17,0.15,0.33,0.27,0.46c0.94,1.06,1.62,2.33,1.96,3.71
		c0.34,1.38,0.34,2.82,0.01,4.2c-1.4,1.42-3.09,2.51-4.97,3.19c-1.87,0.68-3.87,0.94-5.85,0.75c-1.98-0.19-3.9-0.82-5.6-1.84
		C80.56,79.7,79.1,78.3,78,76.64c-0.03-2.19,0.76-4.3,2.22-5.93c0.12-0.13,0.21-0.29,0.27-0.46c0.06-0.17,0.08-0.35,0.07-0.53
		c-0.01-0.18-0.06-0.35-0.14-0.52c-0.08-0.16-0.19-0.3-0.33-0.42c-0.93-0.8-1.6-1.86-1.92-3.04c-0.32-1.18-0.27-2.44,0.13-3.6
		c0.4-1.16,1.15-2.17,2.13-2.89C81.41,58.52,82.59,58.11,83.82,58.07L83.82,58.07z M128.06,70.1c1.27-0.01,2.53,0.17,3.75,0.54
		c3.85,1.28,7.23,3.68,9.72,6.88c3.19,4.21,4.61,9.5,3.96,14.75c-1.09,6.16-4.04,11.84-8.45,16.27c-2.78,3.13-6.19,5.64-10,7.36
		c-3.81,1.72-7.94,2.6-12.12,2.6h-32.2c-0.19,0-0.38-0.04-0.55-0.11s-0.33-0.18-0.47-0.31c-0.13-0.13-0.24-0.29-0.31-0.47
		c-0.07-0.18-0.11-0.36-0.11-0.55v-1.19c0-0.45,0.09-0.9,0.26-1.31c0.17-0.42,0.42-0.8,0.74-1.11c0.32-0.32,0.7-0.57,1.11-0.75
		c0.42-0.17,0.86-0.26,1.31-0.26h0.5c0.26,0,0.51-0.05,0.74-0.15c0.24-0.1,0.45-0.24,0.63-0.42c0.18-0.18,0.32-0.4,0.42-0.63
		c0.1-0.24,0.15-0.49,0.15-0.75v-1.45c0.05-2.13,0.93-4.15,2.44-5.64c1.52-1.49,3.55-2.32,5.67-2.32c2.12,0,4.15,0.83,5.67,2.32
		c1.51,1.49,2.39,3.51,2.44,5.64v2.48c0,0.14,0.06,0.28,0.17,0.38c0.1,0.1,0.24,0.16,0.39,0.16c0.14,0,0.28-0.06,0.39-0.16
		c0.1-0.1,0.16-0.24,0.17-0.38v-2.48c0-1.62-0.42-3.21-1.23-4.62c-0.81-1.4-1.96-2.57-3.36-3.39c0.85-0.2,1.65-0.57,2.36-1.09
		c0.7-0.52,1.3-1.17,1.75-1.93c0.45-0.75,0.74-1.59,0.86-2.46c0.12-0.87,0.06-1.75-0.17-2.6c-0.59-2.19-1.41-4.32-2.44-6.34
		c-0.07-0.13-0.18-0.23-0.32-0.28c-0.14-0.04-0.29-0.03-0.42,0.03c-0.13,0.07-0.23,0.18-0.27,0.32c-0.05,0.14-0.03,0.29,0.03,0.42
		c1,1.95,1.78,4,2.35,6.12c0.24,0.87,0.25,1.79,0.04,2.68c-0.21,0.88-0.63,1.7-1.24,2.37c-0.6,0.67-1.36,1.19-2.21,1.49
		c-0.85,0.3-1.76,0.39-2.65,0.25l-16.5-2.62c-0.77-0.13-1.47-0.56-1.93-1.19c-0.46-0.64-0.65-1.43-0.53-2.21
		c0.12-0.78,0.55-1.48,1.18-1.94c0.63-0.46,1.43-0.66,2.2-0.54l12.7,2.02c0.14,0.02,0.29-0.02,0.41-0.1
		c0.12-0.09,0.2-0.22,0.22-0.36c0.02-0.14-0.01-0.29-0.1-0.41c-0.09-0.12-0.21-0.2-0.36-0.22l-6.54-1.04
		c0.13-2.6,0.55-5.17,1.25-7.68c2.68-0.08,5.28-0.9,7.53-2.37c2.24-1.47,4.04-3.54,5.18-5.97c3.43,1.58,6.5,3.87,8.99,6.72
		c2.49,2.85,4.36,6.19,5.47,9.82c2.21,5.81,2.62,12.15,1.18,18.2c-0.05,0.22-0.05,0.45,0.01,0.67c0.06,0.22,0.17,0.42,0.33,0.58
		c0.16,0.16,0.35,0.28,0.57,0.35c0.21,0.07,0.44,0.08,0.67,0.04c5.04-1.01,9.61-3.66,13-7.54c3.53-3.49,5.91-7.99,6.81-12.89
		c0.4-3.56-0.58-7.14-2.73-10c-1.71-2.19-4.02-3.83-6.65-4.72c-1.3-0.37-2.68-0.32-3.95,0.14c-1.27,0.46-2.36,1.31-3.12,2.43
		c-0.23,0.34-0.53,0.63-0.87,0.86c-0.34,0.23-0.73,0.38-1.13,0.46c-0.4,0.08-0.82,0.07-1.22-0.01c-0.4-0.08-0.78-0.25-1.12-0.48
		c-0.34-0.23-0.63-0.53-0.85-0.87c-0.23-0.34-0.38-0.73-0.46-1.14c-0.08-0.4-0.07-0.82,0.01-1.22c0.08-0.4,0.25-0.79,0.48-1.13
		c1.15-1.7,2.7-3.09,4.5-4.06C124,70.63,126.01,70.11,128.06,70.1z M88.91,99.78l3.3,0.52c-1.03,0.36-1.98,0.9-2.82,1.6
		C89.21,101.2,89.05,100.49,88.91,99.78L88.91,99.78z"/>
	<path class="st1" d="M93.07,61.63c-0.62,0.01-1.21,0.27-1.64,0.71c-0.43,0.45-0.67,1.04-0.66,1.67c0,0.62,0.25,1.22,0.69,1.66
		c0.44,0.44,1.04,0.69,1.66,0.69c0.62,0,1.22-0.25,1.66-0.69c0.44-0.44,0.69-1.04,0.69-1.66c0-0.31-0.06-0.63-0.18-0.92
		c-0.12-0.29-0.3-0.56-0.52-0.78c-0.22-0.22-0.49-0.4-0.78-0.51C93.69,61.68,93.38,61.62,93.07,61.63z M93.09,62.75
		c0.17,0,0.33,0.03,0.48,0.09c0.15,0.06,0.29,0.15,0.41,0.27c0.12,0.12,0.21,0.26,0.27,0.41c0.06,0.15,0.09,0.32,0.09,0.49
		c0,0.16-0.03,0.33-0.09,0.48s-0.15,0.29-0.27,0.4c-0.12,0.12-0.25,0.21-0.4,0.27c-0.15,0.06-0.31,0.09-0.47,0.09
		c-0.16,0-0.32-0.03-0.47-0.09c-0.15-0.06-0.29-0.15-0.4-0.27c-0.12-0.12-0.21-0.25-0.27-0.4c-0.06-0.15-0.09-0.31-0.09-0.48
		c0-0.33,0.12-0.64,0.35-0.88C92.45,62.89,92.76,62.76,93.09,62.75z"/>
	<path class="st1" d="M83.78,61.63c-0.62,0.01-1.21,0.27-1.64,0.71c-0.43,0.45-0.67,1.04-0.66,1.67c-0.01,0.31,0.05,0.63,0.16,0.92
		c0.11,0.29,0.28,0.56,0.5,0.79c0.22,0.23,0.48,0.4,0.77,0.53c0.29,0.12,0.6,0.19,0.91,0.19s0.62-0.06,0.91-0.19
		c0.29-0.12,0.55-0.3,0.77-0.53c0.22-0.23,0.39-0.49,0.5-0.79c0.11-0.29,0.17-0.61,0.16-0.92c0-0.31-0.06-0.63-0.18-0.92
		c-0.12-0.29-0.29-0.56-0.52-0.78c-0.22-0.22-0.49-0.4-0.78-0.51C84.41,61.68,84.1,61.63,83.78,61.63z M83.8,62.75
		c0.17,0,0.33,0.03,0.48,0.09c0.15,0.06,0.29,0.15,0.41,0.27c0.12,0.12,0.21,0.26,0.27,0.41c0.06,0.15,0.09,0.32,0.09,0.48
		c0,0.17-0.02,0.33-0.08,0.49c-0.06,0.15-0.15,0.3-0.27,0.41c-0.12,0.12-0.25,0.21-0.41,0.28c-0.15,0.06-0.32,0.1-0.48,0.1
		c-0.17,0-0.33-0.03-0.48-0.1s-0.29-0.16-0.41-0.28c-0.12-0.12-0.21-0.26-0.27-0.41c-0.06-0.15-0.09-0.32-0.08-0.49
		c0-0.33,0.12-0.64,0.35-0.88C83.17,62.89,83.48,62.76,83.8,62.75z"/>
	<path class="st1" d="M84.5,75.83c0.45,0.64,1.04,1.16,1.73,1.52c0.69,0.36,1.46,0.55,2.24,0.55s1.54-0.19,2.24-0.55
		c0.69-0.36,1.29-0.88,1.73-1.52c0.08-0.12,0.11-0.27,0.09-0.41c-0.03-0.14-0.11-0.27-0.23-0.36c-0.12-0.08-0.27-0.12-0.41-0.09
		c-0.14,0.02-0.27,0.1-0.36,0.22c-0.35,0.49-0.81,0.89-1.34,1.17c-0.53,0.28-1.13,0.42-1.73,0.42c-0.6,0-1.19-0.14-1.73-0.42
		c-0.53-0.28-0.99-0.68-1.34-1.17c-0.09-0.12-0.21-0.2-0.36-0.22c-0.14-0.02-0.29,0.01-0.41,0.09c-0.12,0.08-0.2,0.21-0.23,0.36
		C84.38,75.56,84.42,75.71,84.5,75.83z"/>
</g>
</svg>
